<svg xmlns="http://www.w3.org/2000/svg" version="1.1" xmlns:xlink="http://www.w3.org/1999/xlink" width="1220" height="1144"><svg xmlns="http://www.w3.org/2000/svg" version="1.1" xmlns:xlink="http://www.w3.org/1999/xlink" width="1220" height="1144"><svg xmlns="http://www.w3.org/2000/svg" viewBox="0 0 1220 1144"><g fill="none" stroke="#8b8b8a" stroke-width="2"><path d="M782.5 95.07q.72 1.03 2.13.31 1.06-.55 1.53-1.5m274.56 240.89q-.59 1.44-.33 3.43m-93.86 295.3.36 10.72m21.84-.71q2.17-.85 2.21-1.6 7.69-6.78 17.77-8.01 6.28-.78 11.18-.59 10.54.38 21.04 6.22 7.61 4.22 13.9 8.94 6.92 5.19 10.63 12.27 1.73 3.29 4.52 15.98m-20.55 56.82-3.38 6.74m-44.7 132-.09 8.98m-2.07 14.37q-1.44 2.93-1.62 6.18m-2.63 8.69-1.38 2.69m-70.25 7.01q-4.98.02-6.4 3.59m-8.36 20.75-4.72 10.75m-24.92 36.66-5.18 4.08m-265.76 118.96-2.79-.94M221.46 887.03q.4-1.61-.48-3.54m-74.63-196 .21-7.51m86.42-29.22c1.04 1.83 2.56 3.79 4.86 3.72 3.82-.13 3.76-4.87 4.01-8.28m-77.27-258.15q-.38-4-2.74-7.58M462.85 72.08l-1.02 1.05q-.43.45.19.37 2.6-.36 1.73-1.65"></path><path d="M615.3 1048.74c-.76-.78-1.71-1.61-2.76-1.95q-6.59-2.15-13.61-6.61-2.27-1.45-4.81-2.07-8.48-2.06-17.91-5.81c-5.76-2.29-11.94-4.02-17.97-5.81q-6.22-1.86-13.61-3.44-12.94-2.78-25.48-6.2-8.71-2.38-17.59-4-9.46-1.72-18.07-3.7c-.78-.18-1.35-.6-2.02-.99q-.51-.29-1 .04c-3.01 2.03-5.27-.35-8.19-1.04-3.28-.78-6.59-.87-9.71-2.3q-1.35-.63-2.8-.9c-16.95-3.18-33.67-7.56-48.7-16.01q-9.15-5.14-16.35-10.06-13.08-8.93-15.64-10.83-10.43-7.77-18.96-20.48c-7.67-11.41-14.72-22.73-18.89-35.88-1.64-5.16-2.51-10.69-4.1-15.93-1.23-4.07-1.73-8.27-2.52-12.46q-.68-3.63-.89-7.84c-.23-4.64-2.3-8.45-2.02-13.51.18-3.29-.03-6.45-.14-9.76q-.08-2.54-.55-4.71c-.69-3.26-4.29-9.66-8.32-11.14-13.97-5.14-26.48 13.74-33.75 22.59-3.3 4.01-9.65 9.31-14.7 10.87-4.82 1.49-10.97-3.42-12.46-7.54-3.54-9.77-6.09-20.58-7.93-31.21q-.79-4.55-2.41-8.67-3.05-7.76-5.24-15.93-1.83-6.8-4.25-13.15c-3.66-9.6-7.77-19.61-12.82-28.71-2.86-5.16-4.3-8.65-4.68-14.12q-.19-2.76 1.28-4.76c3.63-4.93 9.14-8.25 14.18-11.65 7.94-5.35 14.81-11.97 20.74-19.62 6.18-7.98 12.03-16.5 15-26.03q3.29-10.56 5.35-21.11 1.38-7.09 1.25-12.45-.17-7.4.87-13.13.46-2.53.13-4.88-1.55-10.87-1.63-22.7c-.04-6.19-.97-12.53-2.31-18.38-2.57-11.22-5.15-22.69-8.12-33.7q-3.59-13.28-7.7-30.27-1.44-5.92-4.58-13.25c-3.02-7.06-4.4-15.75-7.7-23.13q-2.57-5.78-4.46-12.28c-1.14-3.92-3.03-7.4-4.51-11.09l-11.81-29.48c-2.7-6.73-6.46-13.05-9.02-19.74q-1.75-4.56-4.35-9.66-2-3.92-3.73-9.41-5.53-17.49-13.12-33.31-1.24-2.59-1.28-4.85-.1-5.36-2.16-10.58c-1.95-4.91 2.51-9.43 7.03-10.59q1.46-.37 2.75.41 7.67 4.58 14.69 9.28 2.39 1.6 7.18 2.29c4.7.68 9.26 2.73 13.85 2.96q5.16.26 11.92.05 3.68-.12 6.87-1.35c5.4-2.07 9.95-4.53 14.81-6.89 15.46-7.51 22.22-21.83 28.64-36.73q2.19-5.07 10.37-18.14c3.04-4.85 6.47-9.39 9.03-14.38q.97-1.88 2.33-3.25 5.24-5.29 9.85-10.11 6.17-6.45 13.07-16.27 1.8-2.57 3.99-4.2 6.45-4.83 12.39-11.19 2.49-2.66 5.46-5.14 2.27-1.9 4.86-4.87 4.77-5.47 13.14-13.05 6.13-5.55 12.87-10.65 12.68-9.6 22.73-15.68c8.19-4.95 14.47-9.64 19.57-17.09 2.47-3.61 3.43-7.79 4.55-11.92.74-2.72.81-5.71.07-8.45q-1.36-5.07-2.22-10.12c-.66-3.89 1.94-8.87 4.05-12q2.16-3.23 6-6.17 10.14-7.76 21.34-12.72 13.15-5.82 28.13-12.2 2.51-1.06 4.86-.13 3.97 1.57 8.49 1.49c3.92-.06 7.61 1.39 11.11 2.95 13.97 6.23 25.74 15.38 37.11 25.66 4.43 4 11.27 6.58 16.45 2.2q.42-.36.22-.87-.78-1.93-2.06-3.62c-4.88-6.51-10.11-13-16.62-18.54q-10.93-9.3-22.13-15.28c-7.72-4.12-16.13-4.87-24.6-6.46-6.3-1.19-12.18-.9-18.34.35-4.85.98-9.82.89-14.56 2.29q-5.26 1.55-10.69 3.1c-2.51.71-4.31 2.37-6.52 3.61q-6.6 3.7-12.81 7.15c-9.07 5.04-16.12 12.85-22.4 20.77q-1.56 1.97-2.25 4.69-.14.56.1 1.09c.91 2.04 2.11 3.73 2.63 5.97 1.55 6.75 2.26 16.75-.85 23.11q-2.67 5.45-7.07 8.77-10.32 7.79-21.77 15.69-5.47 3.77-10.98 9c-11.01 10.47-21.35 21.65-32.46 32.12q-12.93 12.22-27.44 31.21-4.43 5.8-8.35 12.65-4.61 8.05-10.1 14.42c-10.34 11.99-18.74 25.91-26.07 39.92q-3.19 6.1-6.46 9.69c-8.93 9.8-21.81 16.33-35.18 16.25-4.14-.03-8.09.31-12.02-1.35-10.39-4.38-21.56-11.04-28.4-19.95q-5.44-7.09-9.54-15.42c-1.84-3.74-2.67-7.85-3.7-11.91q-1.04-4.1-.95-7.96c.1-4.46-.05-8.62 1.92-12.71 1.23-2.55 1.33-5.38 1.27-8.17a1.7 1.7 0 0 0-2.64-1.38q-2.98 1.97-4.95 4.88-6.48 9.57-9.88 17.52c-1.22 2.84-2.2 6.2-2.25 9.31-.09 5.94-1.09 11.83-.71 17.71q.8 12.67 5.36 26.07c.79 2.32 1.08 4.9 1.17 7.37q.21 5.91 2.03 11.22 3.23 9.41 6.59 18.97c.97 2.75 2.24 4.91 3.71 7.34 1.09 1.8 1.6 3.82 2.11 5.86 1.12 4.51 3.87 8.55 5.41 12.98q2.52 7.24 5.74 14.14c3.25 6.98 5.29 14.28 7.21 21.59.83 3.16 2.49 5.8 3.5 8.88q1.12 3.46 2.5 6.67c1.46 3.41 2.55 6.99 4.31 10.29 4.19 7.84 5.89 16.09 9.31 24.13q2.72 6.37 5.04 13.35c1.77 5.34 5.02 9.84 6.52 15.27 2.11 7.59 3.48 15.78 6.25 23.05q3.63 9.51 6.42 17.93.5 1.54.92 3.13.44 1.67.6 3.19 1.15 10.79 3.72 22.59c1.18 5.47 1.42 14.73 3.37 23.06q.51 2.21.5 4.49c-.03 3.85.89 7.12.08 11.2q-.54 2.7-.72 5.43c-.53 8.06-.74 16.24-2.15 24.13q-1.94 10.82-5.55 22.5-1.67 5.4-4.55 9.8c-7.01 10.7-13.89 20.15-24.42 27.66-6.01 4.29-12.37 6.21-18.96 8.6q-4.45 1.63-9.18 6.37c-1.85 1.86-1.49 4.68-.86 6.94 1.83 6.51 4.24 12.61 7.86 18.56 7.71 12.67 14.15 25.11 19.07 39.36 1.5 4.36 2.17 8.75 3.62 12.98 1.24 3.58 2.29 7.33 3.91 10.7q1.7 3.53 2.21 6.5.92 5.3 2.45 9.54c3.17 8.79 4.55 17.63 4.92 27.01.17 4.16 1.11 8.3 1.18 12.43q.04 1.93 1.04 3.58 1.61 2.68 2.52 5.69.61 2.06 2.47 3.49 3.38 2.6 5.55 3.08 3.26.72 11.12.56c3.52-.08 6.28-.92 9.25-2.78q12.43-7.78 21.26-17.95c2.81-3.23 10.34-8.29 13.75-4.11 2.03 2.49 3.91 5.62 4.58 8.76.87 4.07.92 8.22 1.66 12.49q1.37 7.81 2.39 15.34c1.71 12.59 5.96 25.58 12.53 36.32q2.4 3.91 4.26 8.36c.74 1.78 2.15 3.9 3.42 5.35q11.38 12.96 25.35 25.82c11.82 10.89 25.96 18.5 40.49 25.37 1.32.62 2.76.77 3.99 1.53q1.51.93 3.17 1.18c3.26.5 6.24 2.35 9.3 3.23q10.74 3.08 21.61 3.86 7.6.55 22.68 4.58c4.14 1.11 8.19 1.22 12.35 1.83 1.88.28 3.41.96 5.14 1.65q1.74.7 3.96 1.08c4.79.81 9.28 1.21 14.16 2.79q5.63 1.82 11.57 2.71c1.67.25 3.18.98 4.72 1.58 2.72 1.07 5.45 1.35 8.28 1.79 3.54.55 6.63 2.53 10.1 3.48 9.28 2.53 19.17 4.56 28.51 7.93q14.54 5.23 28.5 12.25 1.7.86 3.11 2.16c4.15 3.85 9.36 8.27 15 8.84 3.35.33 7.37-1.33 10.26-3.03 7.17-4.21 13.9-9.56 21.66-13.28q15.1-7.21 33.53-15.17 4.73-2.04 10.25-3.45c3.1-.79 6.1-2 9.12-3.03 4.51-1.53 9.17-1.73 13.59-3.41 1.62-.62 3.24-.43 4.92-.88q1.79-.48 3.54-.59c3.41-.2 6.41-2.09 9.84-2.75 3.62-.69 7.02-1.36 10.55-2.49q4.25-1.35 8.74-2.47 16.61-4.16 33.47-10.17 7.94-2.83 16.4-4.74 6.51-1.47 13.14-3.83c9.03-3.21 18.5-6.3 26.76-11.12 7.48-4.37 15.4-9.31 21.85-15.35q5.01-4.68 6.58-6.6 3.32-4.04 10.87-15.92 2.93-4.61 9.92-21.18 2.22-5.27 5.82-20.36 1.4-5.88 2-11.62c1.02-9.86.12-20.12-.18-29.93-.09-2.92.8-7.7 2.92-9.55q4.08-3.55 7.07 1.07 3.39 5.23 7.02 12.94c1.63 3.44 2.39 7.21 5.17 9.97q3.08 3.07 5.93 6.45 1.53 1.82 3.77 2.59c3.14 1.08 5.12 3.41 8.46 4.03q2.44.46 4.59 1.75a2.02 2.02 0 0 0 1.44.26q2.28-.43 4.3.23 12.64 4.14 24.43-1.6 6.28-3.06 6.59-10.24.32-7.17 2.29-13.09c1.04-3.12.67-6.27.61-9.53q-.06-3.59.9-7.2c1.3-4.88 2.4-9.7 3.25-14.72q1.92-11.35 5.03-22.45 1.61-5.73 2.91-11.55 1.23-5.54 3.22-11.12 2.3-6.48 3.94-14.68c.52-2.58 1.72-5.69 2.9-8.06 4.14-8.37 6.3-15.42 10.28-25.2q2.89-7.11 4.32-13.75.26-1.23-.49-2.27-4.44-6.07-12.53-8.09-6.3-1.57-12.2-3.83-2.1-.8-4.32-1.11-3.23-.45-6.08-2.65-11.34-8.74-20.41-16.75-2.24-1.97-3.65-4.76-2.63-5.21-5.88-10.09c-7.01-10.53-11.85-22.76-14.98-35.01-.21-.82-.01-2.03-.31-2.63q-4.34-8.78-3.45-18.04 1.5-15.42 2.85-28.85.77-7.73 4.11-16.35 1.87-4.84 4.78-16.23c.95-3.7.28-8.34 1.74-11.32q2.88-5.87 6.23-11.68c1.9-3.31 1.84-7.21 3.27-10.72 2.08-5.13 4.28-10.22 5.98-15.49q4.95-15.36 12.21-29.65c2.03-3.99 3.55-8.37 5.34-12.53q1.97-4.54 3.32-9.43 1.56-5.66 4.4-12c3.1-6.94 5.2-14.31 8.59-21.55 2.32-4.95 4.2-10.83 6.13-15.06q6.2-13.57 10.67-27.8c1.57-5 4.44-9.22 5.94-14.27q1.36-4.56 2.57-9.04c1.32-4.86 3.57-9.05 4.74-13.8q1.25-5.01 2.93-9.54 3.19-8.58 3.83-20.34.23-4.31.79-8.64c1.1-8.43-1.7-19.94-6-26.84q-4.6-7.36-12.2-16.77c-1.69-2.09-4.66-5.59-7.72-5.1a1.37 1.37 0 0 0-1.04 1.88q1.95 4.65 3.96 8.82 1.51 3.15 1.74 6.86 1.24 20.65-7.54 37.46c-.75 1.44-1.14 3.78.91 4.38 4.35 1.28 6.55 3.5 8.83 7.85 1 1.91.72 3.71.83 5.8q.11 2.17.52 4.38.75 4.04-1.13 8.13-1.95 4.26-2.36 8.25c-.47 4.61-2.12 9.14-4.04 13.19q-4.47 9.44-8.09 20-3.98 11.59-11.44 25.42c-3.18 5.89-4.07 12.65-7.23 18.62-3.43 6.49-6.47 12.89-8.76 19.93-2.96 9.1-6.88 17.05-11.56 25.24q-2.39 4.18-3.71 8.75c-2.39 8.28-4.92 16.48-7.87 24.67q-2.03 5.65-3.66 11.42c-1.11 3.95-3.15 7.79-3.7 11.64q-.91 6.29-1.62 12.78-.41 3.75-2.12 7.43-2.14 4.63-4.29 9c-1 2.02-1.51 4.27-1.69 6.51q-.89 11.16-4.95 18.58c-2.83 5.17-5.02 11.87-5.34 17.46q-.49 8.29-.9 17.07c-.27 5.73-.2 11.45 1.02 16.94q2.66 12 7.85 26.35c2.49 6.88 7.88 13.87 12.02 19.64q5.35 7.43 9.74 10.77 10.32 7.85 20.42 16.01c3.97 3.21 7.51 5.21 11.97 7.03q7.72 3.13 14.89 6.15c2.31.97 4.29 3.52 3.47 6.18-1.74 5.59-2.04 11.34-4.19 16.81-1.85 4.71-3.7 9.23-5.17 14.08q-3.44 11.33-7.12 22.62-1.16 3.57-1.64 6.82c-.81 5.57-3.03 10.45-3.89 16.01-1.03 6.72-3.16 12.99-4.2 20q-1.69 11.37-3.16 21.32c-.93 6.28-2.16 10.95-4.56 16.56q-.91 2.11-2.31 3.43c-3.7 3.49-8.44 7.01-13.84 6.06q-4.6-.82-8.79-2.3c-5.07-1.79-9.87-5.78-14.52-8.82-7.09-4.64-11.36-11.47-15.61-18.54q-4.83-8.02-10.48-14.11c-2.98-3.21-6.7-4.8-10.63-1.67-5.81 4.63-8.42 11.44-10.7 18.3-1.11 3.37.01 7.07-.39 10.6q-.4 3.47.02 6.55c.76 5.62.08 10.78.17 16.16.1 5.71-2.03 10.74-2.56 16.34-.42 4.5-1.76 9.3-3.84 13.49q-6.57 13.23-13.35 24.75-6.97 11.84-16.84 19.21-13.49 10.07-37.84 21.09-4.31 1.95-9.71 3.77c-6.02 2.04-12.06 5.04-18.21 6.56-13.03 3.22-26.06 6.38-38.86 9.82-6.53 1.76-12.75 3.87-19.08 5.93q-3.81 1.24-7.62 1.54-9.61.76-17.97 4.27-15.47 6.48-22.62 8.77-14.54 4.64-23.98 8.56c-4.48 1.85-9.37 4.51-13.38 7.4q-9.38 6.76-20.67 11.24a.89.88 57.1 0 1-.95-.21"></path><path d="M952.3 339.68c-11.59-2.63-20.98-5.47-30.2-12.91q-3.38-2.73-8.52-9.57-4.22-5.61-9.28-11.38-7.92-9.01-17.94-24.2c-4.14-6.27-7.69-12.73-11.3-19.24-3.47-6.26-8.13-12.05-13-17.23q-10.31-10.98-20-21.75c-5.69-6.33-13.52-13.11-21.3-20.35q-2.65-2.47-5.88-4.51-20.09-12.75-40.65-25.94-4.87-3.12-7.84-7.77c-2.53-3.94-3.12-11.3-2.74-15.69q.7-8.03.5-15.62-.17-6.4-4.27-10.96-5.93-6.6-12.77-12.91c-6.11-5.63-9.79-9.35-15.8-12.32q-6.53-3.23-13.31-6.78c-3.08-1.61-6.29-2-9.58-2.5q-3.47-.51-6.96-1.36-15.27-3.69-33.11-2.3-6.76.53-14.83 3.57c-10.08 3.8-17.59 8.73-26.06 14.29-3.44 2.25-6.87 4.91-9.41 7.98q-5.52 6.69-11.3 12.51-2.52 2.53-3.62 5.64-.25.7.35 1.14c1.18.84 2.07 2.37 3.48 2.75q2.38.63 4.73-.89 5.42-3.52 10.19-5.63 6.34-2.81 9.21-4.68 8-5.21 15.47-11.06c6.24-4.89 12.42-9.5 20.7-9.69q6.48-.15 13.29-.57 5.9-.36 10.66 1.82c.94.43 1.69.19 2.6-.06a1.78 1.71 46.1 0 1 1 .04c1.96.68 3.6.15 5.58.91q6.25 2.38 11.71 5.65 2.87 1.72 8.1 3.14c1.38.37 2.81 1.18 3.87 2.11q3.72 3.28 7.49 6.14c7.28 5.53 11.99 12.92 15.6 21.55q1.56 3.73 1.88 7.59.62 7.64 1.32 15.22.62 6.7 6.24 11.3c7.49 6.12 16.29 10.46 24.53 15.24q5.28 3.05 10.71 7.91c6.31 5.64 13.97 10.18 20.58 15.59q14.6 11.96 27.27 23.64 1.65 1.52 2.77 3.03c6.56 8.85 14.08 17.81 20.3 27.21 7.68 11.62 13.79 23.24 21.21 33.26 4.86 6.56 8.61 12.98 13.03 19.33q7.37 10.55 18.27 20.56c6.05 5.55 14.79 7.8 22.05 11.18q4.24 1.97 8 2.38c7.61.83 17.19.98 23.52-2.95q5.3-3.3 10.58-7.05c1.06-.76 1.82-1.88 2.42-3.03a1 1 0 0 0-.59-1.42c-1.01-.32-2.19-.54-3.25-.28q-12.11 3.01-25.7-.08M382.38 166.1c8.92-5.65 20.37-12.48 21.29-24.23q.97-12.5-4.06-24.74c-6.78-16.47-30.27-29.62-47.8-25.95-5.52 1.16-10.56 5.23-14.4 9.24q-2.59 2.71-6.24 9.01c-3.97 6.83-8.27 13.22-12.17 20.67q-3.92 7.49-8.38 13.82-10.87 15.41-22.38 31.49c-6.6 9.22-14.6 16.23-23.49 23.68q-2.32 1.95-7.62 7.9c-3.43 3.85-7.3 7.05-10.34 11.06q-2.66 3.5.82 6.46 4.68 3.98 9.87 7.59a79.65 79.65 0 0 1 23.8 26.06c2.46 4.33 5.86 9.01 11.31 7.72q.59-.14.97-.63 5-6.45 10.65-13.09c3.45-4.05 6.2-8.47 9.18-12.9q2.81-4.18 7.73-9.44 8.54-9.15 16.86-18.72 3.24-3.73 5.48-6.93c3.74-5.34 7.37-9.75 12.11-13.85 1.88-1.62 2.45-4.05 4.93-5.07q1.73-.72 2.96-1.93 6.41-6.32 13.34-12.91 2.45-2.33 5.58-4.31"></path><path d="m792.42 154.32.62 1.81q.19.53.73.7 2.78.89 4.31 2.11 11.2 8.94 23.93 17.44c5.14 3.44 9.55 7.46 14.91 10.95q9.85 6.43 15.02 11.41 4.6 4.44 8.98 9.17c5.24 5.69 11.24 10.04 16.04 16.23q9.68 12.46 20.1 25.17 2.66 3.24 4.38 6.24 4.36 7.61 9.44 13.1c3.92 4.25 7.95 1.58 9.55-2.77q1.05-2.87 3.01-4.97 4.12-4.41 8.14-9.46c4.24-5.34 10.44-9.12 15.92-13.18q2.94-2.17 6.16-3.43 5.35-2.09 10.41-5.42 4.24-2.79 1.51-7.09-5.29-8.38-13.04-15.05-3.89-3.35-7.7-6.92-11.06-10.39-23.34-21.11c-12.87-11.24-23.86-23.08-36.09-34.73q-10.75-10.24-19.47-22.83-1.77-2.56-7.73-10.03c-2.3-2.88-3.78-6.26-5.83-9.32-2.93-4.36-7.46-9.05-13.04-9.15-5.65-.11-11.71-.42-16.97 1.49q-6.91 2.51-12.76 8.24-7.28 7.13-11.86 14.49c-3.06 4.91-5.05 10.98-6.57 16.53q-2.37 8.65.02 16.82.21.73-.07 1.43-.4 1 .62 1.42.49.21.67.71m-390.46 75.73-6.2 6.16m-152.3 144.62q-6.21-3.02-11.51-.08m-2.07 2.79q-.75 2.54.01 5.21m68.02 294.3-.82 2.97m-8.02 21.89q-1.84 2.2-2.42 5.06M930.06 513.7l.84-2.73m13.08-35.8q.8-.82.91-2.24M724.56 158.71q.42-3.08-.45-5.72m2.46 92.76q.78 1.69 2.14 2.6m51.59 75.19q-8.15 4.94-14.6 12.79m-48.14 88.92-.14 23.73m1.27 34.54q-.32.92-.32 1.23.01 24 0 48 0 2.35.47 6.97m1.09 22.03q-.56 2.09-.56 4.25 0 18.38.01 36.75 0 2.51.52 6.22m.18 4.06.17 1.96m1.11 39.02-.2 17.07q0 .24.15.43l.17.22m-.25 2.28q-.15-.3-.1-.64h-.01q-.06 0-.07.06-.36 6.02-.55 12.32-.05 1.96.48 3.83.12.39.23 0 .05-.15.08-.31m.02 1.95q-.35 2.6.59 5.26m.5 4.01-.28 4.54m-.23.74q-.68 2.65.03 5.21m.77 29.56q-.26 2.12.14 4.22 1.15 6.01.39 12.02m.63 45.98-.42 6.21m24.56 152.16q-1.66 0-2.23.76m-238.05 2.52-14.43.52M448.81 952l-.71-7.52m33.15-483.99q.74-2.11.35-4.43m-58.52-127.3q-2.1-2.02-4.84-2.47m37.36 3.36q.86-1.92 2.01-.1 1.06 1.68 2.71.84.56-.29 1.17-.15c1.42.32 2.75.61 4.2.61q11.8-.04 23.29-.11c3.33-.02 6.64-.44 9.95-.73 7.09-.62 15.7.08 21.32-.3q24.11-1.61 48.25-.65 1.83.07 7.15-.84c3.82-.65 7.46.29 11.3-.04 4.78-.41 9.66.29 14.22-.37q6.16-.88 12.49-.91c4.14-.02 7.6-1.48 6.74-6.42q-.09-.54-.62-.67-6.05-1.55-9.31-.88-4.38.89-6.51.63-6.38-.8-11.39-.75c-3.24.04-6.3-.87-9.46-.66q-4.08.26-8.36.6c-7.75.63-15.79.19-23.49.23-9.06.06-19.4 2.07-28.77 1.61q-12.62-.61-26.89-1.07-5.62-.18-9.52-1.49-5.34-1.79-9.44-5.31-3.91-3.34-3.61-8.94.42-7.61 6.48-14.19 3.82-4.16 7.51-6.96 3.88-2.95 7.09-6.3 5.25-5.48 12.03-10.77c9.08-7.07 17.52-14.46 26.21-21.85 4.98-4.24 10.16-7.98 15.4-11.83 4.15-3.05 7.94-6.57 11.53-10.13q11.08-10.96 23.35-19.8c5.66-4.08 12.97-7.36 19.77-3.57q2.51 1.4 5.17 2.48c2.38.96 4 3.18 5.71 5.06 2.67 2.93 6.13 4.89 9.28 7.2q2.53 1.86 4.77 3.7 18.65 15.37 37.3 30.75c1.91 1.57 4.12 2.69 6.09 4.22q19.72 15.29 37.55 29.65c4.5 3.62 9.84 6.24 14.04 10.21q2.09 1.96 4.64 3.27a1.24 1.24 0 0 0 1.38-.15c3.57-3 2.65-7.28.35-10.57q-5.94-8.48-10.71-12.24-6.62-5.23-13.85-10.77-6.97-5.36-13.56-11.13-8.84-7.75-17.94-13.68c-4.54-2.97-9.45-5.61-13.53-9.32q-9.44-8.57-18.9-15.06c-6.76-4.63-12.68-10.62-18.56-16.15q-7.45-7.02-18.99-12.99c-2.61-1.35-5.41-2.36-8.25-1.44q-5.45 1.76-11.34 6.29-7.75 5.97-14.41 12.1-7.03 6.47-13.53 11.57-10.58 8.3-20.37 16.63c-6.57 5.6-13.82 10.15-20.28 15.94q-3.04 2.72-6.52 5.42c-12.3 9.57-24.19 20.5-36.99 30.35q-10.99 8.45-21.41 16.59-8.88 6.94-13.8 14.18c-.71 1.05-.98 2.33-.35 3.49q2.24 4.15 5.38 8.42c3.65 4.96 7.54 6.6 13.39 7.94q1.03.24 1.44-.69"></path><path d="M568.49 291.39a.49.49 0 0 1 .41.57q-1.08 5.8 1.68 11.37a1.3 1.29-1.3 0 0 .65.62q1.3.57 2.77.63 8.25.34 15.33.03c6.59-.29 13.33.41 19.69-.1q7.02-.57 16.05-3.14.64-.18 1.02-.72 2.06-2.96 2.4-6.83c.21-2.28-1.52-4.27-2.71-6.07a1.74 1.73 83.9 0 0-.8-.65q-4.8-1.99-9.77-4-1.42-.57-2.75.28-5.36 3.42-9.36 8.02c-3.93 4.51-7.91 5.19-13.68 5.38-2.58.08-4.2-.84-6-2.64q-7.56-7.57-10.22-16.41c-.67-2.24-.55-4.6-.4-6.93.23-3.59-1.68-7.42-2.96-10.78-1.51-3.96-8.23-.57-10.22 1.04q-9.73 7.83-19.78 15.41c-1.57 1.19-2.72 2.79-3.69 4.46a.47.47 0 0 0 .36.71q3.13.28 6.06-.18c4.39-.69 7.64-.32 11.75.45 3.47.64 5.97 2.96 9.13 4.32 2.56 1.09 1.21 4.59 5.04 5.16m-38.55-5.91c-7.23 2.87-14.28 5.68-20.3 9.73-3.54 2.39-5.88 7.69.11 9.29q9.17 2.45 18.91.09 5.93-1.44 5.39-6.67-.64-6.06-1.71-11.15a1.79 1.79 0 0 0-2.4-1.29m-274.69 16.29c-5.52 2.97-12.43-3.36-15.81-7.12q-3.66-4.08-9.41-7.33-2.8-1.59-4.85-1.51c-3.66.15-6.67 2.59-6.56 6.47q.11 3.86 1.4 6.21 1.12 2.03 1.68 4.25c1.76 6.99 13.16 17.31 20.78 16.34q12.96-1.66 20.32-11.71 2.71-3.69 1.68-8.4a1.19 1.18-17.6 0 0-1.63-.84q-4 1.7-7.6 3.64m694.67 2.38q-1.91-1.27-4.17-2.05a1.79 1.78-69.3 0 0-2.24 1.02q-1.26 3.12-.03 5.61c1.58 3.22 5.91 7.75 9.82 7.93q2.4.12 4.37.69c5.19 1.51 10.58.12 14.96-2.41 6.45-3.72 13-7.45 15.16-15.15q.14-.51-.05-1c-1.59-4.22-5.6-10.82-10.75-8.2q-4.05 2.07-8.33 5.28c-2.64 1.97-4.56 4.67-7.09 6.75-3.26 2.69-7.99 3.96-11.65 1.53m-405.18 39.84q-1.75-.92-3.73-.96c-8.17-.19-16.54-.16-24.74.71q-6.15.66-12.77-.4c-4.7-.76-9.59.66-14.5.74q-5.34.1-10.01 1.51-1.22.36-1.63 1.74c-1.29 4.27 1.03 6.37 4.87 7.36q4.28 1.11 8.55 1.1c2.94 0 5.27 1.28 8.34.59 2.26-.51 4.34-.53 6.65-.54q21.49-.06 38.73-.41c5.67-.11 11.41.64 16.98-.19 2.32-.34 7.65-.96 9.85.07q.74.35 1.48.72a1.09 1.05-39.6 0 0 .82.06q5.82-1.84 10.57-1.56c2.09.12 3.5 1.58 5.61 1.52 1.65-.05 3.08-.02 4.68-.54q1.95-.63 3.79.49c4.3 2.62 12.12 4.8 16.09.57q.36-.39.88-.52 2.23-.54 3.34-.49c6.32.3 12.5-.76 18.34-.66q8.99.14 18.91-.77c3.65-.34 7.31.45 11.01.35q22.76-.63 43.9-.2 7.07.14 12.78-4.11 3.62-2.69.56-5.81-1.76-1.8-4.09-1.99-7.37-.59-15.36.26c-3.17.34-6.48-.58-9.75-.52q-12.32.21-24.91.54c-23.79.63-48.74.2-69.96.45-15.71.2-29.71-.22-47.24.01q-2.65.04-6.03 1.07a2.71 2.69 50.2 0 1-2.01-.19m-35.56 372.22q-.05-.17-.11-.35-.2-.54-.71-.81-3.66-1.98-6.7-4.83a2.18 2.17 30.1 0 0-3.56.94c-1.14 3.73 1.04 6.83 4.16 8.61 1.67.95 5.79 1.03 7.69.9 4.69-.31 8.95.52 13.63.62q8.36.19 16.91.34 1.51.03 1.55 1.54.06 2.03-.68 4.58a.97.97 0 0 1-.73.68q-5.37 1.14-10.68 1.84c-3.96.53-6.96 2.79-11.14 1.65-3.13-.86-6.42.31-9.32 1.2a1.55 1.55 0 0 0-.34 2.81l3.83 2.25q.5.29.77.81.86 1.61 2.3 2.62a2.08 2.07-58.1 0 1 .63 2.72q-1.65 3.01-2.08 6.45a2.21 2.2 17.4 0 0 1.16 2.21c1.09.57 2.05 1.14 2.7 2.22 1.72 2.89 4.16 8.47 7.54 9.44q4.15 1.19 7.64 3.55.48.32.45.9c-.22 4.82-7.29 6.1-10.99 6.66a.66.65-11.3 0 0-.54.8c1.2 4.91 2.08 10.03-1.75 13.78q-.43.43-.28 1.01.43 1.71-.75 3.28a1.03 1.03 0 0 0-.06 1.14q.28.48.34 1.06a.73.71 72.1 0 1-.34.68q-3.14 1.88-4.16 5.37a.73.72 35.5 0 0 .11.63q2.78 3.88 6.7 5.74c3.67 1.75 6.04 4.88 7.92 8.38q.29.53-.22.86l-1.15.72a.66.66 0 0 0-.21.9q.37.61 1.22.71 14.7 1.71 29.81 1.58 4.12-.03 6 2.8.31.46.86.58 1.26.28 2.14 1.28.38.44.31 1.02-.16 1.24-.92 2.3a1.1 1.09 29.5 0 0 .46 1.65c3.83 1.6 8.89 1.76 13.06 1.71q12.29-.17 23.84.52c4.79.29 9.44 2.89 13.73 5.34q2.34 1.33 5.33 1.62c8.48.81 16.9.53 25.48.73 9.12.21 19.4-.01 27.14-1.38q7.16-1.27 11.44-7.04 2.08-2.8 1.17-6.86a1.18 1.17-81 0 0-.55-.76l-1.28-.74q-.49-.28-.58-.83l-.71-4.08q-.12-.7.4-1.19l1.38-1.26q.57-.53.57-1.31.08-11.62 1.52-20.32c.76-4.56-.43-8.71-.81-13.1q-.29-3.27-.13-6.39.77-15.64-.55-29.98c-.5-5.46.33-10.59.65-15.94q.46-7.75-.37-14.78-.43-3.74.03-7.5 1.01-8.09.36-17.74c-.08-1.21.27-3.23.9-4.5 2.05-4.11 3.92-7.84 4.91-12.37.95-4.34 2.98-8.23 4.8-12.19q4.91-10.66-1.21-19.65c-1.8-2.64-.58-5.47-.98-8.41q-.62-4.48.71-8.46.17-.54-.02-1.07-1.02-2.76-3.27-4.77a1.77 1.75-73.5 0 1-.58-1.08q-.56-4.22-1-8.61c-.33-3.2.8-6.37.69-9.49q-.24-7.33-2.4-15.35c-.35-1.31-.43-2.96-.16-4.3q1.03-5.22 2.22-10.99c.85-4.12.22-8.02-.66-12.07q-.97-4.51-1.2-9.01-.93-18.37 0-33.2c.46-7.15-.32-15.21.68-21.7q1.44-9.32-.18-17.21c-.63-3.03-.13-6.2-.48-9.31q-.6-5.43-.58-12.51c0-.84-.08-1.67-.53-2.39q-2.88-4.66-3.17-10.17-.55-10.11-1.73-19.27c-.85-6.6.12-13.28-1.28-19.77q-.72-3.34-1.04-6.67a2.23 2.22-82.7 0 0-1.46-1.89c-3.96-1.45-8.18-2.3-12.43-1.51q-5.12.94-10.01-.36c-3.58-.95-7.09.64-10.69-.58q-2.15-.73-4.2-.15-4.49 1.29-9.46.78-2.77-.28-5.41.15-6.44 1.03-12.96.14-3-.41-5.94-.16c-5.48.47-10.3.85-15.92-.06q-2.53-.4-5.93.21c-4.85.88-9.69-.4-14.73.18q-5.09.58-10.75-.17c-3.6-.47-7.02-.32-10.68.16q-4.05.54-8.09-.6-.49-.14-.99 0-1.66.46-3.16.55-5.78.34-11.71.43c-5.8.09-4.56 4.28-3.52 8.06a.6.6 0 0 1-.7.74q-1.24-.25-1.32 1.03a2 1.95-21.5 0 1-.58 1.29l-2.89 2.86q-.45.45-1.07.58c-4.79 1-5.13 2.29-3.74 6.79 1.59 5.13-6.16 7.92-9.75 7.21q-1.6-.32-3.34.3c-6.45 2.27-8.11 5.27-6.7 12.17q.39 1.9.22 4.22-.5 7.25.53 14.86.08.57.65.61c2.9.21 6.06-2.46 8.54-3.74q.61-.31 1.28-.2 3.46.57 6.4-1.08a.89.88 47.3 0 1 .92.04l.69.45q.47.31 1.03.33c3.9.16 8.64 1.65 9.21 6.15q.07.57-.33.98-5.85 6.06-11.55 12.45-3.53 3.96-4.14 8.2c-.73 5.07-2.56 10.35-4.19 15.1-1.21 3.55-.51 7.26-2.25 10.58q-1.56 2.98-2.39 6.34c-.4 1.63.58 2.89.52 4.53q-.17 3.83-.13 7.63a.66.65-10.1 0 0 .88.61c4.83-1.78 10.91-.52 15.78 1.09q.74.25.69 1.03l-.23 3.78q-.04.63-.62.88-5.23 2.32-11.09 2.03-.63-.03-1-.55l-3.4-4.77q-.4-.56-1.06-.37l-3.25.94q-.58.17-.68.77c-.57 3.53 3.16 6.83 6.05 8.4 3.36 1.81 6.58 2.31 8.75 5.87q2.23 3.66 4.12 7.47c2.69 5.44-10.15 10.34-13.18 11.54a.79.79 0 0 0-.47.94c1.1 4.19 1.79 10.22-.07 14.12q-2.54 5.31-5.88 11.29a2.3 2.29 34.6 0 0 .53 2.87c2.15 1.8 3.36 4.03 3.61 6.92q.87 10.39.42 20.37c-.03.55-.22.95-.46 1.44q-.24.51.07.98c1.9 2.87 1.23 5.86.26 9.09q-.16.53-.63.83l-1.27.84a1.06 1.05-16.1 0 0-.46.83c-.12 4.72 2.01 9.19 3.5 13.59.44 1.31.57 2.68.4 4.05q-.08.6.49.82 4.48 1.69 6.09 6.18.18.51-.05 1-1.71 3.68-3.36 4.25-8.2 2.84-7.6 11.62a.96.95-79.2 0 0 .53.79l6.36 3.07a.68.68 0 0 1 .04 1.2q-3.34 1.89-4.06 7.06a.75.75 0 0 0 .62.84c3.61.63 7.26 1.28 10.86 1.15q8.29-.3 15.47.49 4.31.48 8.55.68.25.01.45.15 2.04 1.49 3.32 3.47.38.59-.16 1.03-1.52 1.23-1.64 3.27a1.31 1.31 0 0 1-.87 1.16q-3.62 1.31-7.3 2.57c-4.68 1.61-9.22.12-13.7 2.77a.87.86 65.9 0 0-.38 1.01c.69 2.1 1.99 4.15.41 6.22-1.57 2.06-3.47 3.71-5.56 5.2a1.7 1.61 83.5 0 0-.61.81l-.25.71q-.43 1.21-.81-.02"></path><path d="M504.69 524.76q.22.73.94.96a.35.35 0 0 0 .45-.26q.21-1.03-.87-1.26-.74-.16-.52.56m537.41 151.67q.62 3.71 2.58 6.59.98 1.43 1.73-.12l1.24-2.56a3.34 3.31-45.5 0 0-.01-2.94c-2.65-5.39-5.05-10.32-10.17-13.72q-5.78-3.82-15.24-5.12a1.93 1.9-59.5 0 0-1.43.38c-1.34 1.03-2.7 2.31-2.58 4.19q.17 2.9.26 5.35a1.4 1.39 9.9 0 0 .87 1.23c4.34 1.77 8.07 1.64 12.65 1.93q.52.03.88.4c.96.99 1.79 1.83 3.2 2.17q2.71.67 5.35 1.46.57.17.67.76m-853.42-10.58c-3.75 1.5-7.34 3.63-7.6 7.98a1.5 1.48 7.6 0 0 1.2 1.55q7.06 1.4 13.6-.17c2.83-.67 7.02-4.6 5.59-7.78-2.39-5.32-8.52-3.31-12.79-1.58m342.375 103.78a.93.57 42.6 0 0-.3-1.05.93.57 42.6 0 0-1.07-.21.93.57 42.6 0 0 .3 1.05.93.57 42.6 0 0 1.07.21m-28.705 11.81 1.68 1.23a.39.38 37.3 0 0 .53-.07l.27-.34a.55.54 34.3 0 0-.16-.8q-1.62-.96-2.71-2.43a.73.73 0 0 0-1.31.34q-.18 1.29-1.02 2.32-1.57 1.93-1.6 4.07-.11 8.07.38 15.75a.55.55 0 0 0 .55.52l4.82-.06q.66-.01 1.19-.41c3.04-2.3 4.7-6.98 1.67-10.01-2.73-2.75-4.53-5.78-4.94-9.74a.41.41 0 0 1 .65-.37m23.35 96.18q-1.52-.61-2.79-.23-3.97 1.18-7.86 1.07c-5.06-.15-10.03.11-15.1-.17-3.2-.18-5.84.45-8.89.65-4.49.3-7.72 2.31-9.68 6.23-.72 1.42-.7 3.44.81 4.36 3.33 2.02 7.2 3.88 11.34 3.78q7.15-.17 14.31.21c2.99.16 5.49-2.56 8.3-1.66q4.52 1.43 7.81 1.37 11.6-.21 23.01-.21c3.77 0 6.98-2.02 10.68-1.75q6.47.49 12.79 1.52 2.53.41 4.66-.8.47-.27 1.01-.26 4.36.12 9.07.19 2.51.04 5.15.68c3.59.88 6.59-.66 10.15-.62q4 .05 7.93-.54 1.26-.19 2.67-.07 1.47.12 2.77.14 15.61.19 29.68.48 5.94.12 10.41-.52c3.49-.51 6.57-.56 9.86-.81q3.91-.3 7.6-.3 22.05-.01 43.65-.21 4.46-.05 10.77-1.39.5-.1.84-.49c1.4-1.59 3.75-4.01 2.05-6.03q-5.21-6.22-13.63-6.89-18.33-1.45-40.58-.16c-4.39.25-8.24 2.06-13.54.77q-2.89-.7-5.48-.6-7.15.26-13.55.85-3.13.3-6.07-.25c-4.71-.87-8.87-.06-13.51.14-5.42.25-10.95.11-16.33 1.1-2.75.51-5.99-.97-8.26-.73q-7.88.83-10 .82-22.37-.03-48.57.13c-2.97.02-5.74.49-8.66.8q-2.61.28-4.82-.6m130.26 50.63a1.62 1.62 0 0 1 1.33-1.28q2.96-.47 4.5-2.35c1.65-2 4.29-3.04 6.56-4.16a2 2 0 0 0 1.12-1.64l.93-11.12a1.24 1.23-77.8 0 0-.81-1.27c-1.67-.6-3.47-1.08-5.26-1.18q-11.02-.57-22.08-1.43c-5.95-.47-12.14-.36-18.2-.33-4.53.02-8.95.63-13.49.82-7.89.34-15.45 1.86-23.02 2.76q-5.38.64-11.8 2.63-8.99 2.79-16.49 4.9-5.04 1.41-10.56 5.68a1.46 1.46 0 0 1-.97.3l-6.67-.4a.69.63-57.1 0 0-.38.1l-4.19 2.53q-.45.27-.59.78l-1.06 3.69a2.52 2.52 0 0 1-1.87 1.77q-6.57 1.48-8.37 9.27-.24 1.03.18 2.06c1.32 3.24 1.78 4.34 5.4 5.2 2.66.63 5.34 1.22 8.08 1.3 7.14.2 13.83-.08 21.27.85q4.96.63 10.92.79 2.37.07 4.5-.32c3.81-.7 7.62-1.25 11.53-1.21q15.74.12 31.67.05 10.5-.04 12.74-.44c7.51-1.32 13.18-5.45 18.85-10.36 2.46-2.12 5.57-4.68 6.23-7.99M513.48 432.02c3.28 2.39 7.65 2.31 11.53.72 2.28-.93 2.32-6.04-.09-6.19-1.96-.12-3.69-.07-5.45-.85-2.15-.95-4.97-.97-6.66.92q-2.65 2.97.67 5.4m145.69 43.69q-3.1-6.38-6.11-12.36-1.79-3.56-5.03-7.03-7.46-7.98-15.16-15.7c-3.93-3.94-8.8-6.21-14.21-7.36q-8.82-1.88-17.5-3.81c-2.19-.48-5.53-.72-7.36-.39-6.28 1.15-12.95 1.73-18.75 3.79-10.8 3.84-20.72 11.3-28.21 20.58q-3.26 4.04-4.7 8.63c-2.92 9.34-4.45 18.6-4.24 28.77q.22 10.67-.47 19.87-.32 4.16-1.94 9.87-1.28 4.53-1.17 13.18.16 13.04 3.36 25.62c.68 2.66.9 5.03.93 7.66q.11 9.35.08 18.62c-.01 3.86.97 7.43.7 11.33q-.51 7.26 1.06 13.82c1.66 6.92 5.95 10.35 12.71 10.23 4.57-.08 9.02.33 13.58.2q9.44-.28 18.42.12c6.35.28 12.43-.46 18.71-.51 1.86-.01 3.68-1.08 5.45-.95q12.14.9 23.22-.95c2.31-.39 4.63-.09 6.95 0 4.2.16 7.88-.92 11.94-1.19 4.77-.32 8.6-2.89 9.78-7.4q1.76-6.71 3.2-13.58c2.04-9.77 2.33-21.99-.47-32.21-1.24-4.53-2.18-9.18-1.96-13.83q.15-3.35-.42-6.46-.57-3.09-.32-6.28.95-12.48 3.35-22.61.62-2.58-.18-5.51-.62-2.3-.61-4.81c.02-4.7.29-9.1-.65-13.64-1.13-5.38-1.46-10.54-3.98-15.71m-156.35-32.54 2.74 1.23a1 1 0 0 0 1.32-.5l.05-.11a3.76 2.36-65.8 0 0-.61-4.4l-.26-.11a3.76 2.36-65.8 0 0-3.69 2.46l-.05.11a1 1 0 0 0 .5 1.32m22.66 199.4c-2.68-2.22-6.98-4.43-10.41-3.11q-1.48.56-2.91.67c-2.48.2-4.02 2.17-4.38 4.49a1.03 1.02-56 0 0 .13.69q2.78 4.61 8.27 3.43 4.9-1.06 9.11-3.61a1.58 1.57 49.4 0 0 .19-2.56m17.46 10.04q-4.34-.94-7.55 2.64-.45.49.01.98l2.77 2.96q.47.51 1.16.62l3.96.63q3.1.49 3.11-2.65 0-.92-.17-1.82-.53-2.77-3.29-3.36m-13.49 25.15c2.53 1.76 5.49 4.61 8.72 2.84q1.91-1.05 3.56-2.3a2.44 2.42 56.9 0 0 .65-3.12c-2.1-3.8-6.14-4.09-9.37-1.61q-1.67 1.29-3.46 2.26a1.14 1.13 48 0 0-.1 1.93m-13.49-.01q1.15.35 2.34.28 1.91-.11.92-1.76-1.5-2.47-3.86-.77-.95.7-.12 1.76a1.43 1.41-10.5 0 0 .72.49m15.05 32.39-.54.57q-.52.55.2.76 4.09 1.2 6.58-1.26a2.31 2.31 0 0 0 .27-2.95q-1.87-2.73-4.64-4.79-.43-.33-.91-.07-3.13 1.7-2.6 4.54.14.76.7 1.29l.92.9q.52.5.02 1.01m19.517 1.645a5.14 4 127 0 0 6.287-1.698 5.14 4 127 0 0-.1-6.512 5.14 4 127 0 0-6.288 1.698 5.14 4 127 0 0 .1 6.512"></path><path d="M620.26 435.69q.16.85.92.96.57.08.31-.44-.26-.5-.83-.81-.51-.27-.4.29m-14.393 41.568a5.73 5.73 0 0 0-.184-8.101l-3.543-3.386a5.73 5.73 0 0 0-8.1.184l-3.027 3.167a5.73 5.73 0 0 0 .184 8.101l3.543 3.386a5.73 5.73 0 0 0 8.1-.184l3.027-3.167M578.03 501.3c2.79-.73 4.22-3.65 5.2-6.09q.2-.49 0-.98-1.04-2.56-2.66-4.79c-1.31-1.83-4.79-4.08-6.94-2.23q-1.95 1.68-4.04 3.24-.45.33-.6.87c-1.61 5.42 2.74 11.63 9.04 9.98m52.037-7.46a7.42 7.21-15 0 0-9.033-5.044 7.42 7.21-15 0 0-5.301 8.884 7.42 7.21-15 0 0 9.033 5.044 7.42 7.21-15 0 0 5.301-8.884m-3.557 45.82.02 4.38a.92.92 0 0 0 .92.91h.64a2.93 2.88 89.8 0 0 2.87-2.94v-.36a2.93 2.88 89.8 0 0-2.89-2.92h-.64a.92.92 0 0 0-.92.93"></path></g><path fill="#161615" d="M782.5 95.07q.72 1.03 2.13.31 1.06-.55 1.53-1.5 6.83-3.24 12.52-8.08 2.52-2.15 4.65-3.46c2.28-1.41 4.09-2.98 6.85-3.48 6.13-1.12 9.17-3.02 13.9-5.87 3.28-1.98 6.8-3.16 10.32-4.7q2.2-.96 4.38-1.04 11.78-.4 21.23 2.83c3.16 1.08 9.22 4.75 10.43 8.62 1.32 4.22 4.94 6.84 7.04 10.18 2.1 3.36 4.29 6.14 6.45 9.31q1.28 1.87 2.26 3.92 2.61 5.42 5.38 10.54c.82 1.52 2.27 3.54 3.52 4.8q8.19 8.24 11.94 13.72 2.57 3.77 5.31 5.96 2.35 1.87 4.18 4.17 3.71 4.65 7.3 7.69 4.89 4.14 6.74 6.38c3.12 3.76 6.74 6.71 9.62 10.38q2.6 3.3 3.72 4.18 5.3 4.16 9.57 8.12 2.89 2.69 5.4 4.39c2.58 1.75 5.47 3.46 7.56 5.64 5.19 5.43 10.22 10.8 16.69 15.31q.41.29.65.74c2.54 4.9 7.57 7.21 11.23 10.69q4.06 3.87 8.35 7.8 2.81 2.58 8.07 5.53c6.38 3.58 13.11 8.15 17.83 13.85 3.32 4 6.61 8.12 10.35 11.64 3.79 3.58 6.16 8.31 8.19 12.98q1.28 2.92 2.78 5.17c1.4 2.09 2.69 4.01 3.19 6.54q2.05 10.2 5.41 18.52c1.4 3.47 1.31 6.84 2.12 10.46q.45 2.02.32 4.5-.6 11.49-.89 22.96-.59 1.44-.33 3.43c-.84 3.8-1.11 7.76-2.05 11.34q-1.62 6.11-3.23 12.22c-.87 3.32-2.29 6.36-2.98 9.71q-.46 2.23-1.18 4.45-.63 1.98-1.19 3.97-.14.49-.54.81-2.94 2.28-3.82 5.89-1.39 5.71-3.57 11.42-.93 2.44-2.27 4.13c-1.31 1.66-2.73 3.45-3.43 5.41q-1.98 5.58-2.85 11.79-.39 2.78-1.53 5.23c-3.12 6.65-5.43 13.18-7.05 20.18-1.32 5.73-4.73 10.83-6.77 16.39-1.9 5.16-4.96 10.49-6.76 14.56-2.65 5.99-5.53 12.05-7.4 18.07q-2.38 7.67-5.03 15.06c-1.34 3.75-1.62 8.15-3.68 11.57q-5.03 8.33-7.62 16.71c-2.81 9.13-6.67 17.85-9.06 27.17-.59 2.3-.38 4.6-1.2 6.83-1.4 3.79-1.89 7.63-3.09 11.52q-4.92 15.99-5.6 21.93-1.08 9.47-2.42 18.44-.48 3.16.46 10.5l.36 10.72q-.07 1.47.36 2.76.56 1.65.6 2.62.18 3.82 1.14 7.49c.56 2.14 1.93 2.74 2.94 4.45q.25.41.67.64 6.88 3.58 12.32-.45 3.47-2.56 4.31-8.41.68-4.79-.5-9.81 2.17-.85 2.21-1.6 7.69-6.78 17.77-8.01 6.28-.78 11.18-.59 10.54.38 21.04 6.22 7.61 4.22 13.9 8.94 6.92 5.19 10.63 12.27 1.73 3.29 4.52 15.98l.52 4.99q.06.6-.15 1.16-3.67 9.94-6.58 20.61c-.89 3.25-2.32 7.59-4.4 10.31-4.48 5.87-8.39 12.46-9.94 19.75l-3.38 6.74q-2.88 4.62-5.9 9.21c-3.01 4.59-4.71 10.05-6.54 15.13-1.86 5.16-6.21 8.75-8.53 13.69-3.65 7.78-5.12 16.14-7.08 24.48q-.9 3.82-2.51 8.21-1.94 5.33-2.2 11.3c-.08 2.05-1.51 4-2.34 5.91-2.64 6.07-4.59 12.4-6.08 18.46q-.02.07-2.74 8.52c-1.81 5.63-2.51 11.25-.78 17.09l-.09 8.98-2.07 14.37q-1.44 2.93-1.62 6.18l-2.63 8.69-1.38 2.69q-11.96 5.7-21.81 6.76-4.83.52-9.66 1.06-4.79.53-9.71.47-10.22-.11-20.43-.06-1.66.01-4.25-.69-2.19-.6-4.39-.53-4.98.02-6.4 3.59-1.25 1.34-1.87 3.04-.85 2.34-1.36 3.19c-1.37 2.28-2.59 4.15-3.24 6.81q-.94 3.88-1.89 7.71l-4.72 10.75q-1.53 3.98-2.69 5.61-5.5 7.73-10.56 16.98-2.38 4.34-9.08 10.89c-.96.95-1.73 2.12-2.59 3.18l-5.18 4.08c-3.91 1.85-7.43 4.32-11.08 6.63q-12.74 8.05-23.5 13.94-6.74 3.69-20.25 8.78-11.33 4.27-22.35 7.84-13.45 4.37-24.79 9.01-1.94.79-3.81.8-2.27 0-3.98.62-23.13 8.35-27.98 9.31-12.3 2.43-24.98 4.95-5.5 1.09-10.65 3.79-3.95 2.06-7.07 3.06-4.42 1.41-8.74 2.75c-6.42 1.99-12.03 5.45-18.33 7.71q-3.12 1.13-5.68 3.19c-1.91 1.54-4.23 2.08-6.08 3.67q-6.52 5.61-14.22 9.95c-7.58 4.26-13.71 11.41-18.95 18.3q-1.18 1.55-2.03 3.37-.22.47-.73.51l-10.56.78-2.79-.94q-1.8-4.44-5.29-7.69-10.7-9.93-18.61-16.09-4.85-3.77-13.22-7.58c-3.21-1.47-5.86-3.15-8.58-5.23q-1.52-1.17-3.57-1.59c-3.68-.76-6.98-2.91-10.61-4.09q-13.32-4.32-22.2-6.23-4.32-.92-8.51-2.74-4.57-1.98-9.41-2.94-9.58-1.91-18.36-2.73-2.16-.2-4.16-1.2c-1.74-.87-3.4-.74-5.16-1.71q-4.01-2.22-7.89-3.07-10.31-2.26-18.14-4.38-4.3-1.16-8.14-2.01-6.35-1.39-8.29-2.16-3.53-1.41-7.08-2.75-2.53-.96-7.47-1.83-5.93-1.04-10.68-3.68-3.6-1.99-5.53-2.67-3.28-1.16-6.47-2.45c-4.25-1.72-7.61-4.74-11.86-6.36-3.61-1.37-5.56-4.5-9-6.21q-3.73-1.84-7-4.17-4.69-3.32-10.35-5.98-2.29-1.07-3.8-2.83-2.81-3.28-6.21-5.22-2.98-1.69-5.49-4.33-5.15-5.43-8.74-9.9-1.54-1.93-4.33-3.01-.58-.23-.92-.75-3.85-5.98-6.53-11.85-2.76-6.03-6.59-12.28c-3.11-5.06-5.18-10.64-7.43-15.91q-.63-1.48-.73-3.44-.61-10.93-9.81-17.04c-5.49-3.65-11.6-3.05-17.74-1.03q-3.13 1.04-6.22 1.2-6.38.33-12.42.72c-1.93.13-3.78-.25-5.61-.79q-5.17-1.53-9.96-1.94-1.89-.17-3.6-1.18-4.15-2.47-9.77-3.57a3.84 3.79 70.9 0 1-1.74-.86c-2.99-2.63-6.43-6.68-7.35-10.8-.51-2.3-1.4-4.09-1.61-6.56q-.35-4.17-1.54-8.11.4-1.61-.48-3.54.82-6.71-.03-10.45-.71-3.12-.97-5.22c-.59-4.64-1.37-8.92-2.04-13.4q-.72-4.77-1.56-8.86-1.14-5.55-2.26-11.27c-1.06-5.35-2.59-10.69-4.11-15.96-1.68-5.84-4.24-11.65-5.95-17.34q-1.12-3.73-2.61-7.61c-1.74-4.52-4.77-8.39-7.34-12.64q-2.12-3.51-3.89-7.64-1.95-4.57-4.44-8.43-7.81-12.05-16.46-24.75-2.02-2.96-3.44-6.76-.5-1.34-3.51-3.92c-1.22-1.05-1.9-2.46-3.07-3.6q-.37-.36-.34-.88.21-3.22-1.09-5.79-2.13-4.2-4.15-8.27-1.19-2.39-1.78-5.99c-.97-5.9-2.5-11.99-5.59-17.22l.21-7.51q1.7-3.75 3.17-7.74.4-1.12 1.89-2.3c3.35-2.66 4.34-7.16 7.56-10.19 1.72-1.63 3.35-3.26 5.29-4.61q4.13-2.87 7.62-5.55 1.8-1.39 3.98-2.34 9.19-4 18.27-8.35c2.03-.97 4.17-1.79 6.5-1.88 10.13-.36 18-.81 24.95 6.43 1.58 1.66 2.71 3.03 4.72 4.63q1.45 1.15 2.47 2.68c1.04 1.83 2.56 3.79 4.86 3.72 3.82-.13 3.76-4.87 4.01-8.28q.24-2.27.49-2.86 1.4-3.24 1.35-4.59c-.16-5.09.03-10.04 1.43-15.18q1.34-4.91.68-10.86c-.23-2.05-1.26-3.78-1.44-5.83q-.36-4.18-.43-8.07c-.06-3.41-2.02-6.28-2.59-9.32q-.71-3.75-1.51-7.4-.69-3.16-.91-7.48-.24-4.87-1.35-10.24-1.18-5.73-4.59-11.2-3.38-5.42-4.67-11-.97-4.18-2.47-8.15c-2.14-5.68-4.92-11.15-6.9-17.01-1.32-3.89-.04-8.67-2.65-12q-1.84-2.35-2.61-5.49-.67-2.75-2.14-5.85-3.95-8.36-7.99-16.42c-.43-.88-.45-2.1-1.2-2.62q-.49-.33-.36-.9c.28-1.33-.62-2.28-.97-3.53q-1.05-3.83-2.65-7.27-4.07-8.74-9.1-16.96-.72-1.18-1.38-3.31-.35-1.12-.95-2.22-.6-1.08-.8-2.29-.81-4.92-3.38-9.26-1.72-2.91-2.95-6-.96-2.41-2.13-4.66-1.1-2.12-2.15-4.87-1.99-5.17-2.96-7.1-1.14-2.26-2.3-4.5c-2.24-4.38-3.88-9.18-5.69-13.71q-.38-4-2.74-7.58-2.8-11.88-5.64-23.96c-1.27-5.41-3.21-10.41-5.05-15.52q-.86-2.4-1.17-4.47-.23-1.48-.58-2.98-.32-1.41-.37-2.92-.32-9.21-.24-17.81.07-6.75 1.32-13.74 1.92-10.65 3.29-21.29.14-1.05.46-2.06.23-.69.2-1.39a1.35 1.34 63.2 0 1 .29-.89q3.02-3.76 4.68-8.28.21-.56.69-.91 2.46-1.76 3.54-4.4 1.5-3.67 2.56-7.44c.95-3.32 3.61-4.34 5.65-6.68q4.27-4.9 9.33-9.08 2.33-1.93 4.32-3.88 2.84-2.77 4.55-3.68 9.71-5.15 15.34-8.85c9.52-6.25 19.03-12.87 27.51-20.91 2.54-2.41 4.04-5.17 6.39-7.57q16.04-16.44 19.73-19.71 2.54-2.25 5.01-4.56 3.01-2.81 5.17-4.44 5.1-3.86 8.54-7.42c3.26-3.37 4.99-8.22 8.17-11.83q2.82-3.2 4.95-7.5c4.74-9.6 12.5-17.12 17.29-26.61q2.15-4.25 4.36-8.68c1.5-2.98 3.46-5.57 5.14-8.43q1.68-2.85 3.45-5.05c1.67-2.09 3.68-4.12 4.95-6.47q.23-.44.25-.93.08-2.36 2.21-2.87 2.17-.52 3.67-1.54 3.83-2.62 8.51-5.08 3.26-1.71 6.25-1.96 6.23-.53 12.21-.89c3.46-.2 6.54 1.03 9.96 1.32 3.13.26 4.94 2.38 7.68 3.28q2.54.84 2.99 1.04c5.03 2.31 10.21 4.59 14.94 7.46q4.57 2.77 9.34 5.23c3.55 1.83 6.72 4.42 10.29 6.4 1.21.67 2.32.72 3.56 1.14q.67.23 1.36.25 7.38.18 12.34-3.96c1.52-1.26 2.88-3.18 4.63-3.94q3.88-1.68 7.52-4.04 3.78-2.45 7.5-4.23 5.01-2.4 10.42-5.45.32-.19 1.55-.21l-1.02 1.05q-.43.45.19.37 2.6-.36 1.73-1.65 7.88-2.07 16.02-4.81c4.09-1.37 7.96-2.24 12.07-2.87q.61-.09.94-.6 1.03-1.55 2.97-1.55 8.28-.01 17.42-.03c2.41-.01 4.27 1.18 6.62 1.34q6.21.45 12.48.86c5.99.4 10.96 3.61 16.71 4.66 3.47.63 6.66 1.83 10.03 2.8q1.77.51 3.34 1.68c3.2 2.4 7.3 2.61 10.86 4.35 3.47 1.69 6.96 3.53 10.57 4.9q5.77 2.19 11.27 4.41c3.63 1.47 8.61 1.45 11.99-1.02 1.52-1.1 2.82-2.45 4.78-2.69 4.35-.55 8.01-4.16 12.13-5.73q4.43-1.69 8.75-3.35c5.07-1.96 11.74-.95 15.13-6.06.69-1.04 2.07-1.63 3.25-1.9q8.22-1.92 17.25-1.19 11.4.93 22.99.6c4.17-.12 7.95 1.19 11.98 1.74q15.12 2.05 29.44 6.62c3.05.97 7.08.94 9.64 2.35 4.6 2.54 9.38 4.17 13.91 6.66 3.09 1.7 6.46 2.42 9.35 4.45q3.78 2.65 7.45 5.19c1.67 1.15 4.61 2.19 6.4 2.17q2.29-.02 3.01.24m-167.2 953.67c-.76-.78-1.71-1.61-2.76-1.95q-6.59-2.15-13.61-6.61-2.27-1.45-4.81-2.07-8.48-2.06-17.91-5.81c-5.76-2.29-11.94-4.02-17.97-5.81q-6.22-1.86-13.61-3.44-12.94-2.78-25.48-6.2-8.71-2.38-17.59-4-9.46-1.72-18.07-3.7c-.78-.18-1.35-.6-2.02-.99q-.51-.29-1 .04c-3.01 2.03-5.27-.35-8.19-1.04-3.28-.78-6.59-.87-9.71-2.3q-1.35-.63-2.8-.9c-16.95-3.18-33.67-7.56-48.7-16.01q-9.15-5.14-16.35-10.06-13.08-8.93-15.64-10.83-10.43-7.77-18.96-20.48c-7.67-11.41-14.72-22.73-18.89-35.88-1.64-5.16-2.51-10.69-4.1-15.93-1.23-4.07-1.73-8.27-2.52-12.46q-.68-3.63-.89-7.84c-.23-4.64-2.3-8.45-2.02-13.51.18-3.29-.03-6.45-.14-9.76q-.08-2.54-.55-4.71c-.69-3.26-4.29-9.66-8.32-11.14-13.97-5.14-26.48 13.74-33.75 22.59-3.3 4.01-9.65 9.31-14.7 10.87-4.82 1.49-10.97-3.42-12.46-7.54-3.54-9.77-6.09-20.58-7.93-31.21q-.79-4.55-2.41-8.67-3.05-7.76-5.24-15.93-1.83-6.8-4.25-13.15c-3.66-9.6-7.77-19.61-12.82-28.71-2.86-5.16-4.3-8.65-4.68-14.12q-.19-2.76 1.28-4.76c3.63-4.93 9.14-8.25 14.18-11.65 7.94-5.35 14.81-11.97 20.74-19.62 6.18-7.98 12.03-16.5 15-26.03q3.29-10.56 5.35-21.11 1.38-7.09 1.25-12.45-.17-7.4.87-13.13.46-2.53.13-4.88-1.55-10.87-1.63-22.7c-.04-6.19-.97-12.53-2.31-18.38-2.57-11.22-5.15-22.69-8.12-33.7q-3.59-13.28-7.7-30.27-1.44-5.92-4.58-13.25c-3.02-7.06-4.4-15.75-7.7-23.13q-2.57-5.78-4.46-12.28c-1.14-3.92-3.03-7.4-4.51-11.09l-11.81-29.48c-2.7-6.73-6.46-13.05-9.02-19.74q-1.75-4.56-4.35-9.66-2-3.92-3.73-9.41-5.53-17.49-13.12-33.31-1.24-2.59-1.28-4.85-.1-5.36-2.16-10.58c-1.95-4.91 2.51-9.43 7.03-10.59q1.46-.37 2.75.41 7.67 4.58 14.69 9.28 2.39 1.6 7.18 2.29c4.7.68 9.26 2.73 13.85 2.96q5.16.26 11.92.05 3.68-.12 6.87-1.35c5.4-2.07 9.95-4.53 14.81-6.89 15.46-7.51 22.22-21.83 28.64-36.73q2.19-5.07 10.37-18.14c3.04-4.85 6.47-9.39 9.03-14.38q.97-1.88 2.33-3.25 5.24-5.29 9.85-10.11 6.17-6.45 13.07-16.27 1.8-2.57 3.99-4.2 6.45-4.83 12.39-11.19 2.49-2.66 5.46-5.14 2.27-1.9 4.86-4.87 4.77-5.47 13.14-13.05 6.13-5.55 12.87-10.65 12.68-9.6 22.73-15.68c8.19-4.95 14.47-9.64 19.57-17.09 2.47-3.61 3.43-7.79 4.55-11.92.74-2.72.81-5.71.07-8.45q-1.36-5.07-2.22-10.12c-.66-3.89 1.94-8.87 4.05-12q2.16-3.23 6-6.17 10.14-7.76 21.34-12.72 13.15-5.82 28.13-12.2 2.51-1.06 4.86-.13 3.97 1.57 8.49 1.49c3.92-.06 7.61 1.39 11.11 2.95 13.97 6.23 25.74 15.38 37.11 25.66 4.43 4 11.27 6.58 16.45 2.2q.42-.36.22-.87-.78-1.93-2.06-3.62c-4.88-6.51-10.11-13-16.62-18.54q-10.93-9.3-22.13-15.28c-7.72-4.12-16.13-4.87-24.6-6.46-6.3-1.19-12.18-.9-18.34.35-4.85.98-9.82.89-14.56 2.29q-5.26 1.55-10.69 3.1c-2.51.71-4.31 2.37-6.52 3.61q-6.6 3.7-12.81 7.15c-9.07 5.04-16.12 12.85-22.4 20.77q-1.56 1.97-2.25 4.69-.14.56.1 1.09c.91 2.04 2.11 3.73 2.63 5.97 1.55 6.75 2.26 16.75-.85 23.11q-2.67 5.45-7.07 8.77-10.32 7.79-21.77 15.69-5.47 3.77-10.98 9c-11.01 10.47-21.35 21.65-32.46 32.12q-12.93 12.22-27.44 31.21-4.43 5.8-8.35 12.65-4.61 8.05-10.1 14.42c-10.34 11.99-18.74 25.91-26.07 39.92q-3.19 6.1-6.46 9.69c-8.93 9.8-21.81 16.33-35.18 16.25-4.14-.03-8.09.31-12.02-1.35-10.39-4.38-21.56-11.04-28.4-19.95q-5.44-7.09-9.54-15.42c-1.84-3.74-2.67-7.85-3.7-11.91q-1.04-4.1-.95-7.96c.1-4.46-.05-8.62 1.92-12.71 1.23-2.55 1.33-5.38 1.27-8.17a1.7 1.7 0 0 0-2.64-1.38q-2.98 1.97-4.95 4.88-6.48 9.57-9.88 17.52c-1.22 2.84-2.2 6.2-2.25 9.31-.09 5.94-1.09 11.83-.71 17.71q.8 12.67 5.36 26.07c.79 2.32 1.08 4.9 1.17 7.37q.21 5.91 2.03 11.22 3.23 9.41 6.59 18.97c.97 2.75 2.24 4.91 3.71 7.34 1.09 1.8 1.6 3.82 2.11 5.86 1.12 4.51 3.87 8.55 5.41 12.98q2.52 7.24 5.74 14.14c3.25 6.98 5.29 14.28 7.21 21.59.83 3.16 2.49 5.8 3.5 8.88q1.12 3.46 2.5 6.67c1.46 3.41 2.55 6.99 4.31 10.29 4.19 7.84 5.89 16.09 9.31 24.13q2.72 6.37 5.04 13.35c1.77 5.34 5.02 9.84 6.52 15.27 2.11 7.59 3.48 15.78 6.25 23.05q3.63 9.51 6.42 17.93.5 1.54.92 3.13.44 1.67.6 3.19 1.15 10.79 3.72 22.59c1.18 5.47 1.42 14.73 3.37 23.06q.51 2.21.5 4.49c-.03 3.85.89 7.12.08 11.2q-.54 2.7-.72 5.43c-.53 8.06-.74 16.24-2.15 24.13q-1.94 10.82-5.55 22.5-1.67 5.4-4.55 9.8c-7.01 10.7-13.89 20.15-24.42 27.66-6.01 4.29-12.37 6.21-18.96 8.6q-4.45 1.63-9.18 6.37c-1.85 1.86-1.49 4.68-.86 6.94 1.83 6.51 4.24 12.61 7.86 18.56 7.71 12.67 14.15 25.11 19.07 39.36 1.5 4.36 2.17 8.75 3.62 12.98 1.24 3.58 2.29 7.33 3.91 10.7q1.7 3.53 2.21 6.5.92 5.3 2.45 9.54c3.17 8.79 4.55 17.63 4.92 27.01.17 4.16 1.11 8.3 1.18 12.43q.04 1.93 1.04 3.58 1.61 2.68 2.52 5.69.61 2.06 2.47 3.49 3.38 2.6 5.55 3.08 3.26.72 11.12.56c3.52-.08 6.28-.92 9.25-2.78q12.43-7.78 21.26-17.95c2.81-3.23 10.34-8.29 13.75-4.11 2.03 2.49 3.91 5.62 4.58 8.76.87 4.07.92 8.22 1.66 12.49q1.37 7.81 2.39 15.34c1.71 12.59 5.96 25.58 12.53 36.32q2.4 3.91 4.26 8.36c.74 1.78 2.15 3.9 3.42 5.35q11.38 12.96 25.35 25.82c11.82 10.89 25.96 18.5 40.49 25.37 1.32.62 2.76.77 3.99 1.53q1.51.93 3.17 1.18c3.26.5 6.24 2.35 9.3 3.23q10.74 3.08 21.61 3.86 7.6.55 22.68 4.58c4.14 1.11 8.19 1.22 12.35 1.83 1.88.28 3.41.96 5.14 1.65q1.74.7 3.96 1.08c4.79.81 9.28 1.21 14.16 2.79q5.63 1.82 11.57 2.71c1.67.25 3.18.98 4.72 1.58 2.72 1.07 5.45 1.35 8.28 1.79 3.54.55 6.63 2.53 10.1 3.48 9.28 2.53 19.17 4.56 28.51 7.93q14.54 5.23 28.5 12.25 1.7.86 3.11 2.16c4.15 3.85 9.36 8.27 15 8.84 3.35.33 7.37-1.33 10.26-3.03 7.17-4.21 13.9-9.56 21.66-13.28q15.1-7.21 33.53-15.17 4.73-2.04 10.25-3.45c3.1-.79 6.1-2 9.12-3.03 4.51-1.53 9.17-1.73 13.59-3.41 1.62-.62 3.24-.43 4.92-.88q1.79-.48 3.54-.59c3.41-.2 6.41-2.09 9.84-2.75 3.62-.69 7.02-1.36 10.55-2.49q4.25-1.35 8.74-2.47 16.61-4.16 33.47-10.17 7.94-2.83 16.4-4.74 6.51-1.47 13.14-3.83c9.03-3.21 18.5-6.3 26.76-11.12 7.48-4.37 15.4-9.31 21.85-15.35q5.01-4.68 6.58-6.6 3.32-4.04 10.87-15.92 2.93-4.61 9.92-21.18 2.22-5.27 5.82-20.36 1.4-5.88 2-11.62c1.02-9.86.12-20.12-.18-29.93-.09-2.92.8-7.7 2.92-9.55q4.08-3.55 7.07 1.07 3.39 5.23 7.02 12.94c1.63 3.44 2.39 7.21 5.17 9.97q3.08 3.07 5.93 6.45 1.53 1.82 3.77 2.59c3.14 1.08 5.12 3.41 8.46 4.03q2.44.46 4.59 1.75a2.02 2.02 0 0 0 1.44.26q2.28-.43 4.3.23 12.64 4.14 24.43-1.6 6.28-3.06 6.59-10.24.32-7.17 2.29-13.09c1.04-3.12.67-6.27.61-9.53q-.06-3.59.9-7.2c1.3-4.88 2.4-9.7 3.25-14.72q1.92-11.35 5.03-22.45 1.61-5.73 2.91-11.55 1.23-5.54 3.22-11.12 2.3-6.48 3.94-14.68c.52-2.58 1.72-5.69 2.9-8.06 4.14-8.37 6.3-15.42 10.28-25.2q2.89-7.11 4.32-13.75.26-1.23-.49-2.27-4.44-6.07-12.53-8.09-6.3-1.57-12.2-3.83-2.1-.8-4.32-1.11-3.23-.45-6.08-2.65-11.34-8.74-20.41-16.75-2.24-1.97-3.65-4.76-2.63-5.21-5.88-10.09c-7.01-10.53-11.85-22.76-14.98-35.01-.21-.82-.01-2.03-.31-2.63q-4.34-8.78-3.45-18.04 1.5-15.42 2.85-28.85.77-7.73 4.11-16.35 1.87-4.84 4.78-16.23c.95-3.7.28-8.34 1.74-11.32q2.88-5.87 6.23-11.68c1.9-3.31 1.84-7.21 3.27-10.72 2.08-5.13 4.28-10.22 5.98-15.49q4.95-15.36 12.21-29.65c2.03-3.99 3.55-8.37 5.34-12.53q1.97-4.54 3.32-9.43 1.56-5.66 4.4-12c3.1-6.94 5.2-14.31 8.59-21.55 2.32-4.95 4.2-10.83 6.13-15.06q6.2-13.57 10.67-27.8c1.57-5 4.44-9.22 5.94-14.27q1.36-4.56 2.57-9.04c1.32-4.86 3.57-9.05 4.74-13.8q1.25-5.01 2.93-9.54 3.19-8.58 3.83-20.34.23-4.31.79-8.64c1.1-8.43-1.7-19.94-6-26.84q-4.6-7.36-12.2-16.77c-1.69-2.09-4.66-5.59-7.72-5.1a1.37 1.37 0 0 0-1.04 1.88q1.95 4.65 3.96 8.82 1.51 3.15 1.74 6.86 1.24 20.65-7.54 37.46c-.75 1.44-1.14 3.78.91 4.38 4.35 1.28 6.55 3.5 8.83 7.85 1 1.91.72 3.71.83 5.8q.11 2.17.52 4.38.75 4.04-1.13 8.13-1.95 4.26-2.36 8.25c-.47 4.61-2.12 9.14-4.04 13.19q-4.47 9.44-8.09 20-3.98 11.59-11.44 25.42c-3.18 5.89-4.07 12.65-7.23 18.62-3.43 6.49-6.47 12.89-8.76 19.93-2.96 9.1-6.88 17.05-11.56 25.24q-2.39 4.18-3.71 8.75c-2.39 8.28-4.92 16.48-7.87 24.67q-2.03 5.65-3.66 11.42c-1.11 3.95-3.15 7.79-3.7 11.64q-.91 6.29-1.62 12.78-.41 3.75-2.12 7.43-2.14 4.63-4.29 9c-1 2.02-1.51 4.27-1.69 6.51q-.89 11.16-4.95 18.58c-2.83 5.17-5.02 11.87-5.34 17.46q-.49 8.29-.9 17.07c-.27 5.73-.2 11.45 1.02 16.94q2.66 12 7.85 26.35c2.49 6.88 7.88 13.87 12.02 19.64q5.35 7.43 9.74 10.77 10.32 7.85 20.42 16.01c3.97 3.21 7.51 5.21 11.97 7.03q7.72 3.13 14.89 6.15c2.31.97 4.29 3.52 3.47 6.18-1.74 5.59-2.04 11.34-4.19 16.81-1.85 4.71-3.7 9.23-5.17 14.08q-3.44 11.33-7.12 22.62-1.16 3.57-1.64 6.82c-.81 5.57-3.03 10.45-3.89 16.01-1.03 6.72-3.16 12.99-4.2 20q-1.69 11.37-3.16 21.32c-.93 6.28-2.16 10.95-4.56 16.56q-.91 2.11-2.31 3.43c-3.7 3.49-8.44 7.01-13.84 6.06q-4.6-.82-8.79-2.3c-5.07-1.79-9.87-5.78-14.52-8.82-7.09-4.64-11.36-11.47-15.61-18.54q-4.83-8.02-10.48-14.11c-2.98-3.21-6.7-4.8-10.63-1.67-5.81 4.63-8.42 11.44-10.7 18.3-1.11 3.37.01 7.07-.39 10.6q-.4 3.47.02 6.55c.76 5.62.08 10.78.17 16.16.1 5.71-2.03 10.74-2.56 16.34-.42 4.5-1.76 9.3-3.84 13.49q-6.57 13.23-13.35 24.75-6.97 11.84-16.84 19.21-13.49 10.07-37.84 21.09-4.31 1.95-9.71 3.77c-6.02 2.04-12.06 5.04-18.21 6.56-13.03 3.22-26.06 6.38-38.86 9.82-6.53 1.76-12.75 3.87-19.08 5.93q-3.81 1.24-7.62 1.54-9.61.76-17.97 4.27-15.47 6.48-22.62 8.77-14.54 4.64-23.98 8.56c-4.48 1.85-9.37 4.51-13.38 7.4q-9.38 6.76-20.67 11.24a.89.88 57.1 0 1-.95-.21m337-709.06c-11.59-2.63-20.98-5.47-30.2-12.91q-3.38-2.73-8.52-9.57-4.22-5.61-9.28-11.38-7.92-9.01-17.94-24.2c-4.14-6.27-7.69-12.73-11.3-19.24-3.47-6.26-8.13-12.05-13-17.23q-10.31-10.98-20-21.75c-5.69-6.33-13.52-13.11-21.3-20.35q-2.65-2.47-5.88-4.51-20.09-12.75-40.65-25.94-4.87-3.12-7.84-7.77c-2.53-3.94-3.12-11.3-2.74-15.69q.7-8.03.5-15.62-.17-6.4-4.27-10.96-5.93-6.6-12.77-12.91c-6.11-5.63-9.79-9.35-15.8-12.32q-6.53-3.23-13.31-6.78c-3.08-1.61-6.29-2-9.58-2.5q-3.47-.51-6.96-1.36-15.27-3.69-33.11-2.3-6.76.53-14.83 3.57c-10.08 3.8-17.59 8.73-26.06 14.29-3.44 2.25-6.87 4.91-9.41 7.98q-5.52 6.69-11.3 12.51-2.52 2.53-3.62 5.64-.25.7.35 1.14c1.18.84 2.07 2.37 3.48 2.75q2.38.63 4.73-.89 5.42-3.52 10.19-5.63 6.34-2.81 9.21-4.68 8-5.21 15.47-11.06c6.24-4.89 12.42-9.5 20.7-9.69q6.48-.15 13.29-.57 5.9-.36 10.66 1.82c.94.43 1.69.19 2.6-.06a1.78 1.71 46.1 0 1 1 .04c1.96.68 3.6.15 5.58.91q6.25 2.38 11.71 5.65 2.87 1.72 8.1 3.14c1.38.37 2.81 1.18 3.87 2.11q3.72 3.28 7.49 6.14c7.28 5.53 11.99 12.92 15.6 21.55q1.56 3.73 1.88 7.59.62 7.64 1.32 15.22.62 6.7 6.24 11.3c7.49 6.12 16.29 10.46 24.53 15.24q5.28 3.05 10.71 7.91c6.31 5.64 13.97 10.18 20.58 15.59q14.6 11.96 27.27 23.64 1.65 1.52 2.77 3.03c6.56 8.85 14.08 17.81 20.3 27.21 7.68 11.62 13.79 23.24 21.21 33.26 4.86 6.56 8.61 12.98 13.03 19.33q7.37 10.55 18.27 20.56c6.05 5.55 14.79 7.8 22.05 11.18q4.24 1.97 8 2.38c7.61.83 17.19.98 23.52-2.95q5.3-3.3 10.58-7.05c1.06-.76 1.82-1.88 2.42-3.03a1 1 0 0 0-.59-1.42c-1.01-.32-2.19-.54-3.25-.28q-12.11 3.01-25.7-.08M382.38 166.1c8.92-5.65 20.37-12.48 21.29-24.23q.97-12.5-4.06-24.74c-6.78-16.47-30.27-29.62-47.8-25.95-5.52 1.16-10.56 5.23-14.4 9.24q-2.59 2.71-6.24 9.01c-3.97 6.83-8.27 13.22-12.17 20.67q-3.92 7.49-8.38 13.82-10.87 15.41-22.38 31.49c-6.6 9.22-14.6 16.23-23.49 23.68q-2.32 1.95-7.62 7.9c-3.43 3.85-7.3 7.05-10.34 11.06q-2.66 3.5.82 6.46 4.68 3.98 9.87 7.59a79.65 79.65 0 0 1 23.8 26.06c2.46 4.33 5.86 9.01 11.31 7.72q.59-.14.97-.63 5-6.45 10.65-13.09c3.45-4.05 6.2-8.47 9.18-12.9q2.81-4.18 7.73-9.44 8.54-9.15 16.86-18.72 3.24-3.73 5.48-6.93c3.74-5.34 7.37-9.75 12.11-13.85 1.88-1.62 2.45-4.05 4.93-5.07q1.73-.72 2.96-1.93 6.41-6.32 13.34-12.91 2.45-2.33 5.58-4.31m410.04-11.78.62 1.81q.19.53.73.7 2.78.89 4.31 2.11 11.2 8.94 23.93 17.44c5.14 3.44 9.55 7.46 14.91 10.95q9.85 6.43 15.02 11.41 4.6 4.44 8.98 9.17c5.24 5.69 11.24 10.04 16.04 16.23q9.68 12.46 20.1 25.17 2.66 3.24 4.38 6.24 4.36 7.61 9.44 13.1c3.92 4.25 7.95 1.58 9.55-2.77q1.05-2.87 3.01-4.97 4.12-4.41 8.14-9.46c4.24-5.34 10.44-9.12 15.92-13.18q2.94-2.17 6.16-3.43 5.35-2.09 10.41-5.42 4.24-2.79 1.51-7.09-5.29-8.38-13.04-15.05-3.89-3.35-7.7-6.92-11.06-10.39-23.34-21.11c-12.87-11.24-23.86-23.08-36.09-34.73q-10.75-10.24-19.47-22.83-1.77-2.56-7.73-10.03c-2.3-2.88-3.78-6.26-5.83-9.32-2.93-4.36-7.46-9.05-13.04-9.15-5.65-.11-11.71-.42-16.97 1.49q-6.91 2.51-12.76 8.24-7.28 7.13-11.86 14.49c-3.06 4.91-5.05 10.98-6.57 16.53q-2.37 8.65.02 16.82.21.73-.07 1.43-.4 1 .62 1.42.49.21.67.71m-390.46 75.73-6.2 6.16q-3.33 1.65-5.77 4.4-3.47 3.91-4.22 4.57-7.23 6.46-15.1 13.2-1.73 1.49-7.06 7.75-4.68 5.49-9.63 11.93c-3.95 5.14-9.05 9.27-12.8 14.85q-3.05 4.56-5.54 9.1-1.84 3.36-3.66 5.77c-2.61 3.46-5.65 6.75-6.71 11.12-.61 2.49-2.09 5.08-3.78 6.78-5.74 5.76-10.58 13.89-13.7 20.89q-1.71 3.85-4.05 6.99-2.45 3.29-4.48 6.64-.79 1.31-1.44 2.79-1.38 3.13-5.03 4.91-3.63 1.77-6.98 3.23c-1.8.78-3.38 1.88-5 2.98q-1.55 1.07-4.13 1.93-2.72.92-5.26 2.44-.46.28-.99.31c-1.61.12-2.72.99-4.2 1.06-5.26.27-10.08 1.24-15.58 1.19q-3.66-.03-7.19-.21-6.21-3.02-11.51-.08-1.34.73-2.07 2.79-.75 2.54.01 5.21.44 4.69 1.41 6.7 2.98 6.21 5.77 12.81.89 2.08 1.26 4.21c.66 3.66 2.61 6.68 3.51 10.13q1.17 4.49 1.85 6.2 1.92 4.8 3.67 9.63c.71 1.95 2.11 3.56 2.79 5.57 1.69 5.07 2.96 10.03 5.65 14.83q3.44 6.15 6.8 14.69c1.87 4.74 1.63 10.51 3.5 14.09q5.24 10.02 6.04 13.99 2.57 12.76 8.64 23.83 1.15 2.09 1.6 4.57 1.03 5.75 3.7 11.57 1.15 2.51 1.88 8.87.06.48.32.89.67 1.01.65 2.39-.01.54.23 1.03.66 1.34.75 2.73.44 6.94 2.26 12.49c.53 1.61 1.67 2.96 2.53 4.38q.98 1.6 1.41 3.46.81 3.46 1.97 6.67c3.02 8.42 1.19 17.69 3.39 25.92 1.53 5.71 3.73 11.02 3.61 17.09q-.11 5.76-.04 11.13c.05 3.98-2.2 7.06-1.68 11.25q.56 4.4-.79 7.89c-.83 2.17-.95 3.95-1.03 6.21q-.07 2.13-.74 4.74-1.79 7.09-2.89 14.34l-.82 2.97c-.33 2.73-1.62 4.8-2.12 7.42q-.69 3.6-1.5 5.48-2.01 4.65-4.4 8.99-1.84 2.2-2.42 5.06-1.44 2.77-2.66 5.72-.48 1.17-1.27 1.94-.87.85-1.55 1.85c-1.93 2.82-5.05 5.06-7.36 7.51-4.35 4.63-9.59 8.37-13.3 13.22-2.04 2.64-4.91 3.83-7.42 5.83-4.87 3.9-3.98 10.48-3.82 15.95q.1 3.5 3.45 5.68.41.27.57.74.4 1.18.87 2.43.52 1.41 1.36 2.78.81 1.35 1.27 2.87 2.3 7.59 4.34 14.67c.69 2.39 2.18 4.38 2.77 6.82 1.12 4.6 3.58 8.28 4.77 12.69.7 2.61 1.84 5.51 2.21 8.3.28 2.03.1 4.03 1.12 5.85 2.03 3.6 5.42 6.2 9.68 5.6q.44-.06.75-.39.29-.33.72-.25.54.1.97-.25 2.18-1.79 3.75-4.16c.46-.69 1.04-.91 1.86-.9q.46 0 .8-.32 3.46-3.34 6.89-4.19 4.23-1.04 7.18-2.57c1.91-.99 2.55-2.65 4.88-3.34q4.63-1.35 6.76-1.1 6.93.8 14.93 2.82a2.22 2.18 69.1 0 1 .79.36l8.43 5.97q.44.31.63.83 1.29 3.6 4.34 6.72a1.61 1.57-71.7 0 1 .45.92q.44 3 1.7 5.91c.64 1.49.36 2.88.93 4.41q.54 1.45.68 2.94 1.02 11.14 1.24 21.34c.08 3.58.41 7.8 1.49 11.09.9 2.73 1.82 5.42 2.31 8.25 1.56 8.9 3.55 17.48 7.71 25.68q4.13 8.15 11.76 18.79c5.95 8.29 11.81 16.19 19.07 22.69q2.76 2.48 7.65 4.74c2.63 1.22 4.61 3.56 7.26 5.07q6.55 3.72 12.84 7.15c3.03 1.66 6.32 2.64 9.24 4.76q3 2.18 8.05 3.15c4.13.79 8.6.91 12.47 2.5 3.18 1.31 6.44 2.57 9.82 3.23q5.23 1.01 10.45 2.57 1.95.58 3.92.57a1.67 1.63 26.7 0 0 .89-.28q1.27-.85 2.45-.35c2.25.93 4.36 1.85 6.76 2.31l10.34 1.94q3.78.71 10.21 2.44 8.45 2.27 16.03 4.07 3.66.87 6.39 1.05 3.21.21 6 .89 4.89 1.18 10.12 1.87c5.81.76 11.9 2.86 17.66 4.56 4.51 1.32 8.41 3.24 12.78 4.21q2.77.62 5.86 1.45 8.27 2.23 15.58 4.28 4.34 1.22 9.69 4.6 8.52 5.38 18.07 3.02c1.95-.48 3.16-2.28 5.22-2.79q2.14-.53 3.95-1.67 3.69-2.32 8.91-4.25c3.78-1.4 7.3-3.55 11.2-4.95q4.14-1.48 8.37-3.46c6.27-2.92 12.5-5.07 19.03-8.14q8.88-4.17 14.35-5.19 9.68-1.8 19.74-3.88 2.4-.49 4.36-1.73c1.36-.85 3.37-1.21 5-1.35q6.11-.5 12.03-2.93 1.8-.74 3.47-2.04c2.74-2.13 7.3-2.69 10.69-3.22q3.3-.51 7.15-1.71 5.04-1.56 9.3-2.71 2.86-.77 9.31-2.94 4.95-1.66 12.13-3.15c5.24-1.09 10.86-2.37 14.66-4.49q9.07-5.03 18.65-10.33c3.02-1.67 6.72-2.55 9.56-4.45 5.06-3.4 9.69-7.04 13.36-12.1q1.94-2.67 4.2-5.35c1.56-1.85 1.85-4.53 3.04-6.68q2.32-4.18 4.5-8.53c1.33-2.63 1.35-5.08 3.24-7.52 1.72-2.24 1.25-5.9 1.4-8.34q.14-2.3.82-4.25 2.04-5.82 2.04-10.2.01-8.76 1.37-20.24.44-3.75-.59-7.38-.35-1.23.67-2.16.37-.34.5-.83c1.22-4.61-.8-8.85.82-13.6.94-2.79 1.09-5.46 2.52-8.13q4.52-8.45 11.83-14.77 3.99-3.45 8.4-4.44c9.03-2.03 18.81-.22 26.51 4.61q8.09 5.06 13.8 13.69 3.57 5.39 8.17 9.58c2.02 1.83 2.53 4.5 4.68 6.23 5.57 4.48 12.38-.89 12.51-7.2q.03-1.69 1.06-2.95c2.09-2.54 1.36-5.82 1.92-8.8q1.32-7.11 2.53-14.84c.81-5.18 4.44-9.14 3.68-14.58q-.29-2.1.34-4.1 1.2-3.77 2.58-7.5c2.48-6.7 2.28-13.93 5.32-20.34q.93-1.97 2.04-4.8.89-2.26 2.08-4.86c1.31-2.85 2.14-10.64-.75-13.99q-1.07-1.23-2.45-2.37-9.44-7.72-19.5-11.38a2.29 2.23-9.7 0 1-.9-.62q-.84-.98-2.04-1.32c-2.05-.59-3.62-2.25-5.65-2.96q-1.64-.58-2.77-1.9-1.61-1.89-3.32-3.5c-1.76-1.66-2.19-3.96-3.91-5.76q-1.68-1.76-3.23-4.23-3.42-5.46-6.79-10.02c-6.61-8.97-11-18.81-14.31-29.64-1-3.29-3.02-6.64-3.73-9.55q-1.38-5.6-2.47-11.61c-.59-3.28-2.35-5.87-2.58-9.3q-.86-12.94-.38-26.12.11-3.3 1.12-6.85c.57-2 .51-4.1.53-6.17q0-.7.43-1.25 2.07-2.65 2.03-5.46-.03-2.12.82-4.04 1.17-2.65 2.3-5.15c1.09-2.43 3.19-4.27 4.93-6.26 2.77-3.18 3.27-6.84 2.44-10.87q-.33-1.65.02-3.37.51-2.44.26-4.87a2.04 2.03-36 0 1 .18-1.11q1.5-3.19 1.87-6.79.11-1.07.67-1.95c.94-1.47 1.8-2.88 2.16-4.58q.6-2.88 1.77-5.37c1.79-3.8 2.21-8.27 2.67-12.28q.18-1.64 1.48-3c1.91-2.02 2-5.15 2.45-7.82q.14-.85 1.06-3.55l.84-2.73c.26-1.06.39-1.98.94-2.95q1.86-3.28 3.11-6.6c2.06-5.49 6.36-9.67 5.77-15.97q-.05-.52-.28-.98-.56-1.11.34-1.94c2.33-2.15 2.47-4.57 3.2-7.36q.8-.82.91-2.24 1.56-3.58 2.41-4.63 2.46-3.08 3.1-5.24 1.13-3.8 1.97-7.46.86-3.68 2.36-7.18 5.91-13.76 10.75-25.87c2.44-6.12 5.37-12.09 7.92-18.26.87-2.11 2.09-3.93 2.9-6.08q1.71-4.54 3.22-9.3 1.06-3.36 2.64-6.42 1.49-2.91.08-6.17-1.26-2.91-4.1-3.81c-4.27-1.33-8.52.42-11.98 3.37q-.62.53-1.43.53-14.59.09-27.52-2.78-2.72-.61-9.99-3.52c-1.62-.65-3.21-.85-4.92-1.09q-.47-.07-.85-.35c-2.18-1.6-3.83-2.25-6.36-3.19-2.43-.9-4.07-2.48-6.06-4q-1.37-1.04-2.6-2.28-8.12-8.17-18.02-17.83-2.32-2.26-4.21-5.76-3.11-5.76-8.66-11.24-1.36-1.35-2.28-3.64c-2.11-5.27-7.04-8.03-9.99-12.63-2.59-4.03-5.54-7.84-7.19-12.25-1.98-5.32-5.62-9.99-9.4-13.93-2.02-2.11-2.97-4.54-4.68-6.75q-5.03-6.5-10.25-12.29-2.64-2.93-4.75-6.53-2.75-4.69-6.85-8.43-2.23-2.02-3.95-4.49-5.48-7.86-12.44-12.21-1.56-.98-2.62-2.65c-2.36-3.74-7.53-6.31-11.44-8.39-2.29-1.22-3.5-3.68-5.8-4.83q-7.58-3.8-15.6-8.57-1.49-.88-5.99-2.47c-7.68-2.7-12.76-8.6-19.62-12.59q-3.42-1.99-6.71-4.76-1.66-1.39-3.12-3.35c-1.64-2.21-4.12-3.56-4.78-6.49-.5-2.22-2.05-3.77-2.22-6.02q-.15-2.12-.81-4.22c-.81-2.6-.41-5.39-.49-8.17q.42-3.08-.45-5.72-.56-1.18-.33-3.47.2-1.98-.75-5.23c-1.94-6.59-10.09-13.03-15.72-15.88q-4.51-2.28-9.31-4.68c-3.56-1.78-7.05-2.25-10.85-2.72a1.97 1.88-20.7 0 1-.97-.41q-4.72-3.84-11.03-2.01c-1.96.56-3.71 1.8-5.8 1.85-2.61.06-5.21.98-6.88 3.11q-1.09 1.38-2.49 2.15-4.12 2.23-6.54 5.02-1.74 2-3.93 3.53-3.39 2.37-5.73 5.45-1.33 1.73-3.2 2.99c-2.8 1.88-4.79 4.58-7.91 5.91q-2.27.97-4.19 2.14c-3.58 2.2-6.17 6.48-5.29 10.77.92 4.51 4.32 6.89 8.26 8.75q2.04.98 3.66 2.51 3.01 2.88 6.09 5.73c2.6 2.41 5.68 3.42 8.2 5.61 2.11 1.82 4.67 2.27 6.02 4.92q2.76 5.44 8.25 6.94c1.52.42 2.04 1.73 2.79 2.96q1.49 2.41 5.21 4.07c4.15 1.84 7.87 5.58 11.89 8.31q3.24 2.21 6.51 4.25c6.65 4.14 9.64 11.41 16.49 15.15q2.89 1.57 5.77 3.5c4.32 2.88 8.01 4.94 11.62 9.4.73.89 1.83 1.21 2.62 2.14q.78 1.69 2.14 2.6 1.72 1.36 4.35 4.6 3.19 3.92 8.2 7.02c2.9 1.79 4.88 4.54 7.78 6.52q5.09 3.49 9.75 7.42c3.23 2.72 7.19 3.16 10.31 6.27q3.63 3.63 7.28 6.02c3.85 2.52 6.99 5.91 10.63 8.79q3.4 2.68 7.24 8.22c1.86 2.68 1.81 5.82 2.73 8.85a1.73 1.73 0 0 1-.65 1.91q-7.52 5.37-16.03 9.57-8.15 4.94-14.6 12.79-12.68 3.32-21.03 13.35c-1.43 1.73-2.37 4.11-4.11 5.36-7.14 5.14-12.05 12.13-16.76 19.37q-2.02 3.11-3.01 6.39-1.79 5.95-3.32 11.43-1.02 3.66-.51 9.56c.3 3.51-1.13 6.31-.49 9.89.81 4.49.46 9.03 1.09 13.57l-.14 23.73c-.28 4.09-1.75 10.18-1.06 15.32q.87 6.4.87 6.45.34 4.35.59 8.71c.08 1.41.58 2.68.87 4.06q-.32.92-.32 1.23.01 24 0 48 0 2.35.47 6.97-.94 4.68-.08 9.48c.46 2.55-.34 4.5.42 7.33q.71 2.62.75 5.22-.56 2.09-.56 4.25 0 18.38.01 36.75 0 2.51.52 6.22l.18 4.06.17 1.96q.43 5.25-.41 10.41-.54 3.32-.23 5.61c.63 4.79 1.43 9.42 1.54 14.31q.1 4.37.21 8.69l-.2 17.07q0 .24.15.43l.17.22q.08 1.27-.25 2.28-.15-.3-.1-.64h-.01q-.06 0-.07.06-.36 6.02-.55 12.32-.05 1.96.48 3.83.12.39.23 0 .05-.15.08-.31.34 1.08.02 1.95-.35 2.6.59 5.26l.5 4.01-.28 4.54-.23.74q-.68 2.65.03 5.21c-.01 1.19.42 2.27.31 3.36q-1.26 13.09.46 26.2-.26 2.12.14 4.22 1.15 6.01.39 12.02-2.29 4.58-1.91 7.97 1.44 12.72.82 25.5-.12 2.57 1.85 8.24.31.88-.13 4.27l-.42 6.21c-1.95 6.67-1.03 13.89.37 20.66q1.03 5 3.28 9.08 2.85 5.18 5.91 11.08 1.01 1.97 1.03 3.84.04 7.95 4.2 16.33c1.72 3.47 6.56 9.82 10.88 11.2a1.36 1.31 83.7 0 1 .76.63c.84 1.5 1.42 3.09 2.46 4.42q4.6 5.85 9.26 11.65.36.45.22 1.01c-.38 1.56-.74 2.71-.62 4.39q.48 7.27.48 15.39c0 4.24 1.17 8.6.89 12.98q-.69 10.66-1.54 21.96a3.84 3.84 0 0 1-2.35 3.27q-3.91 1.64-7.89 3.62c-.9.44-1.84.4-2.78.65q-1.66 0-2.23.76c-9.24.45-19 .83-28.19-.53q-6.06-.9-11.86.36c-1.85.4-3.98.59-5.86.55q-13.89-.25-27.61-.3c-2.49-.01-4.94-.66-7.45-.71q-24.24-.44-40-.13-4.45.09-10.62 1.78c-1.92.52-4.26-.89-6.47-.89q-15.46.02-30.75.02c-2.96.01-5.8 1.01-8.8 1.09q-7.14.18-14.29.1c-3.79-.04-7.46.86-11.3.82q-17.43-.18-34.85.36l-14.43.52q-3.72.03-7.45.25c-2.46.14-4.59-.93-7.06-1.06q-7.94-.43-15.2-.65-3.3-.1-7.76-1.67-2.77-.97-4.33-3.2-2-2.85-2.67-6.6l-.71-7.52q-.03-7.31-.48-14.71-.19-3.22.42-5.7 1.69-6.78 1.98-13.7.03-.68-.32-1.25a.74.74 0 0 1-.04-.72c.68-1.41.11-2.8.51-4.31q.79-2.99.93-6.34c.05-1.4.79-2.47 1.13-3.81q.13-.52.55-.85c5.84-4.53 9.99-9.61 14.21-15.51q5.86-8.2 8.65-16.77.36-1.12.45-2.25.07-.88.63-1.43.42-.41.37-1-.16-1.78.72-3.1.33-.49.26-1.07-.18-1.57.68-2.77.31-.43.26-.96c-.15-1.32.03-1.78.88-2.85q2.05-2.57 2.49-5.62c.54-3.77 1.35-7.12 1.57-10.71.3-4.94 1.92-9.56 2.02-14.36.09-4.15-.3-8.42.44-12.52q.62-3.44.07-6.19-1.52-7.62-1.58-14.98 0-.74-.36-1.41-.19-.36.02-.71.92-1.59.03-3.15-.26-.46.01-.92.77-1.29.17-2.64a1.69 1.65 37.4 0 1-.13-.89q.5-3.47.57-7.11c.03-1.62.83-2.77.69-4.43q-.24-2.78-.85-5.57c-.27-1.25-.91-2.12-.96-3.48q-.27-7.21.52-13.29.31-2.39.34-4.87c.05-3.72.92-6.91.09-10.74q-.59-2.69-.41-5.47c.48-7.25.91-15.27-.21-22.21-.52-3.21-.48-6.3-.46-9.53q.02-3-.69-7.1-1.69-9.78-1.46-13.98.38-6.99.73-13.99.15-2.97.8-5.2c1.45-4.91 2.65-9.54 1.42-14.55-.6-2.4-2.4-3.65-2.41-6.4q-.03-16.49-.48-29.69a.9.9 0 0 0-.16-.51q-.17-.25-.21-.52-.05-.34.13-.66.65-1.15.33-2.47-.14-.57-.09-1.15.37-4.11.58-8.44.01-.18.1-.34.07-.14.18-.25a1.08 1.06-25.5 0 0 .28-.77q-.06-2.39-.5-4.66c-.41-2.06 0-3.56-.09-5.54q-.03-.63.27-1.18.6-1.13-.05-2.2-.32-.52-.05-1.06.82-1.64.04-3.18-.23-.43-.03-.88.46-1.1.19-2.27-1.42-6.23 0-13.78.09-.49-.11-.95-.62-1.42.09-2.87.24-.49 0-.96-.78-1.54.02-3.12.21-.4 0-.81-.3-.58-.33-1.24-.62-14.62-.48-29.23.03-3.34.32-6.77.29-3.54-.37-8.35c-.31-2.24.04-5.08.62-7.3q.98-3.71.61-7.45-.54-5.49-1.25-11.21-.07-.54-.37-.98-.61-.88-.29-2.08.74-2.11.35-4.43-.41-1.57.24-3.1.19-.46.14-.95-.17-1.62-.02-3.26.8-8.9.02-21.4-.02-.25-.19-.45l-.19-.22q-.35-.4 0-.8.39-.45.35-1.02-.41-5.99-2.1-11.34-.16-.52.14-.97 3.53-5.24 1.76-11.82-1.96-7.25-3.89-14.89-.91-3.59-3.9-7.13-1.66-1.97-2.37-4.35-1.76-5.85-4-10.13-4.76-9.09-14.9-15.89-1.98-1.33-4.04-2.11-2.63-.99-5.31-1.46c-2.14-.38-4.32-.48-5.92-2.15q-2.45-2.57-5.11-4.7-1.47-1.18-2.96-3.4-2.44-3.66-6.27-5.76-2.1-2.02-4.84-2.47l-15.71-5.3a1.88 1.84 5.6 0 1-1.25-1.49c-.4-2.76-1.08-7.68-2.92-10.04q-.36-.45-.04-.93c.83-1.29 1.26-2.64 2.31-3.83 2.3-2.61 3.91-5.62 7.02-7.49q4.42-2.64 7.3-5.8c6.39-7.01 11.84-12.53 18.87-17.57q4.26-3.07 8.37-8.33 1.56-2.01 3.62-3.38 3.35-2.24 6.61-4.99c1.21-1.02 2.75-1.11 3.93-1.97 2.02-1.48 2.67-3.44 4.55-4.92 2.26-1.78 4.22-3.91 6.6-5.71q2.39-1.82 4.88-4.11 3.7-3.4 9.25-6.44 4.41-2.42 8.86-5.8 3.97-3.01 8.54-5.94 3.64-2.33 9.17-9.22c2.31-2.88 4.87-4.41 8.08-5.92q8.28-3.89 16.78-13.07 2.64-2.86 4.65-6.94.42-.87 1.24-1.41 6.22-4.1 12.29-6.82c2.12-.95 4.11-2.46 5.72-4.09q4.39-4.44 8.76-6.59 6.09-3 8.69-9.46 1-2.48-.05-4.91c-1.96-4.53-4.86-7.04-9.88-7.69q-5.67-.74-10.23-2.18-2.06-.66-3.21-2.69-1.63-2.89-4.39-4.68c-4.3-2.78-5.62-7.83-10.3-9.84-2.35-1.01-3.63-3.17-5.81-4.24q-6.05-2.96-12.33-3.27c-4.41-.23-8.56-1.42-12.95-1.5-5.28-.09-8.58 3.26-13.21 5.08q-7.86 3.1-14.42 7.97c-2.99 2.22-4.69 6.14-6.06 9.49-2.11 5.13-1.75 10.09-1.08 15.35q.06.45-.13.88-1.53 3.44-2 7.04-.44 3.36-1.4 6.65c-1.13 3.87-1.93 8.06-4.78 11.11-1.42 1.52-1.91 3.74-3.58 4.95q-3.4 2.46-6.58 5.42c-1.22 1.13-2.67 1.55-3.84 2.53-4.59 3.8-9.69 6.72-14.3 10.39-3.68 2.94-7.95 4.63-11.56 7.57-3.92 3.19-8.03 5.92-11.54 9.73q-1.19 1.3-3.44 2.6-3.48 2.02-5.38 5.56m53.64 99.6q.86-1.92 2.01-.1 1.06 1.68 2.71.84.56-.29 1.17-.15c1.42.32 2.75.61 4.2.61q11.8-.04 23.29-.11c3.33-.02 6.64-.44 9.95-.73 7.09-.62 15.7.08 21.32-.3q24.11-1.61 48.25-.65 1.83.07 7.15-.84c3.82-.65 7.46.29 11.3-.04 4.78-.41 9.66.29 14.22-.37q6.16-.88 12.49-.91c4.14-.02 7.6-1.48 6.74-6.42q-.09-.54-.62-.67-6.05-1.55-9.31-.88-4.38.89-6.51.63-6.38-.8-11.39-.75c-3.24.04-6.3-.87-9.46-.66q-4.08.26-8.36.6c-7.75.63-15.79.19-23.49.23-9.06.06-19.4 2.07-28.77 1.61q-12.62-.61-26.89-1.07-5.62-.18-9.52-1.49-5.34-1.79-9.44-5.31-3.91-3.34-3.61-8.94.42-7.61 6.48-14.19 3.82-4.16 7.51-6.96 3.88-2.95 7.09-6.3 5.25-5.48 12.03-10.77c9.08-7.07 17.52-14.46 26.21-21.85 4.98-4.24 10.16-7.98 15.4-11.83 4.15-3.05 7.94-6.57 11.53-10.13q11.08-10.96 23.35-19.8c5.66-4.08 12.97-7.36 19.77-3.57q2.51 1.4 5.17 2.48c2.38.96 4 3.18 5.71 5.06 2.67 2.93 6.13 4.89 9.28 7.2q2.53 1.86 4.77 3.7 18.65 15.37 37.3 30.75c1.91 1.57 4.12 2.69 6.09 4.22q19.72 15.29 37.55 29.65c4.5 3.62 9.84 6.24 14.04 10.21q2.09 1.96 4.64 3.27a1.24 1.24 0 0 0 1.38-.15c3.57-3 2.65-7.28.35-10.57q-5.94-8.48-10.71-12.24-6.62-5.23-13.85-10.77-6.97-5.36-13.56-11.13-8.84-7.75-17.94-13.68c-4.54-2.97-9.45-5.61-13.53-9.32q-9.44-8.57-18.9-15.06c-6.76-4.63-12.68-10.62-18.56-16.15q-7.45-7.02-18.99-12.99c-2.61-1.35-5.41-2.36-8.25-1.44q-5.45 1.76-11.34 6.29-7.75 5.97-14.41 12.1-7.03 6.47-13.53 11.57-10.58 8.3-20.37 16.63c-6.57 5.6-13.82 10.15-20.28 15.94q-3.04 2.72-6.52 5.42c-12.3 9.57-24.19 20.5-36.99 30.35q-10.99 8.45-21.41 16.59-8.88 6.94-13.8 14.18c-.71 1.05-.98 2.33-.35 3.49q2.24 4.15 5.38 8.42c3.65 4.96 7.54 6.6 13.39 7.94q1.03.24 1.44-.69m112.89-38.26a.49.49 0 0 1 .41.57q-1.08 5.8 1.68 11.37a1.3 1.29-1.3 0 0 .65.62q1.3.57 2.77.63 8.25.34 15.33.03c6.59-.29 13.33.41 19.69-.1q7.02-.57 16.05-3.14.64-.18 1.02-.72 2.06-2.96 2.4-6.83c.21-2.28-1.52-4.27-2.71-6.07a1.74 1.73 83.9 0 0-.8-.65q-4.8-1.99-9.77-4-1.42-.57-2.75.28-5.36 3.42-9.36 8.02c-3.93 4.51-7.91 5.19-13.68 5.38-2.58.08-4.2-.84-6-2.64q-7.56-7.57-10.22-16.41c-.67-2.24-.55-4.6-.4-6.93.23-3.59-1.68-7.42-2.96-10.78-1.51-3.96-8.23-.57-10.22 1.04q-9.73 7.83-19.78 15.41c-1.57 1.19-2.72 2.79-3.69 4.46a.47.47 0 0 0 .36.71q3.13.28 6.06-.18c4.39-.69 7.64-.32 11.75.45 3.47.64 5.97 2.96 9.13 4.32 2.56 1.09 1.21 4.59 5.04 5.16m-38.55-5.91c-7.23 2.87-14.28 5.68-20.3 9.73-3.54 2.39-5.88 7.69.11 9.29q9.17 2.45 18.91.09 5.93-1.44 5.39-6.67-.64-6.06-1.71-11.15a1.79 1.79 0 0 0-2.4-1.29m-274.69 16.29c-5.52 2.97-12.43-3.36-15.81-7.12q-3.66-4.08-9.41-7.33-2.8-1.59-4.85-1.51c-3.66.15-6.67 2.59-6.56 6.47q.11 3.86 1.4 6.21 1.12 2.03 1.68 4.25c1.76 6.99 13.16 17.31 20.78 16.34q12.96-1.66 20.32-11.71 2.71-3.69 1.68-8.4a1.19 1.18-17.6 0 0-1.63-.84q-4 1.7-7.6 3.64m694.67 2.38q-1.91-1.27-4.17-2.05a1.79 1.78-69.3 0 0-2.24 1.02q-1.26 3.12-.03 5.61c1.58 3.22 5.91 7.75 9.82 7.93q2.4.12 4.37.69c5.19 1.51 10.58.12 14.96-2.41 6.45-3.72 13-7.45 15.16-15.15q.14-.51-.05-1c-1.59-4.22-5.6-10.82-10.75-8.2q-4.05 2.07-8.33 5.28c-2.64 1.97-4.56 4.67-7.09 6.75-3.26 2.69-7.99 3.96-11.65 1.53m-405.18 39.84q-1.75-.92-3.73-.96c-8.17-.19-16.54-.16-24.74.71q-6.15.66-12.77-.4c-4.7-.76-9.59.66-14.5.74q-5.34.1-10.01 1.51-1.22.36-1.63 1.74c-1.29 4.27 1.03 6.37 4.87 7.36q4.28 1.11 8.55 1.1c2.94 0 5.27 1.28 8.34.59 2.26-.51 4.34-.53 6.65-.54q21.49-.06 38.73-.41c5.67-.11 11.41.64 16.98-.19 2.32-.34 7.65-.96 9.85.07q.74.35 1.48.72a1.09 1.05-39.6 0 0 .82.06q5.82-1.84 10.57-1.56c2.09.12 3.5 1.58 5.61 1.52 1.65-.05 3.08-.02 4.68-.54q1.95-.63 3.79.49c4.3 2.62 12.12 4.8 16.09.57q.36-.39.88-.52 2.23-.54 3.34-.49c6.32.3 12.5-.76 18.34-.66q8.99.14 18.91-.77c3.65-.34 7.31.45 11.01.35q22.76-.63 43.9-.2 7.07.14 12.78-4.11 3.62-2.69.56-5.81-1.76-1.8-4.09-1.99-7.37-.59-15.36.26c-3.17.34-6.48-.58-9.75-.52q-12.32.21-24.91.54c-23.79.63-48.74.2-69.96.45-15.71.2-29.71-.22-47.24.01q-2.65.04-6.03 1.07a2.71 2.69 50.2 0 1-2.01-.19m-35.56 372.22q-.05-.17-.11-.35-.2-.54-.71-.81-3.66-1.98-6.7-4.83a2.18 2.17 30.1 0 0-3.56.94c-1.14 3.73 1.04 6.83 4.16 8.61 1.67.95 5.79 1.03 7.69.9 4.69-.31 8.95.52 13.63.62q8.36.19 16.91.34 1.51.03 1.55 1.54.06 2.03-.68 4.58a.97.97 0 0 1-.73.68q-5.37 1.14-10.68 1.84c-3.96.53-6.96 2.79-11.14 1.65-3.13-.86-6.42.31-9.32 1.2a1.55 1.55 0 0 0-.34 2.81l3.83 2.25q.5.29.77.81.86 1.61 2.3 2.62a2.08 2.07-58.1 0 1 .63 2.72q-1.65 3.01-2.08 6.45a2.21 2.2 17.4 0 0 1.16 2.21c1.09.57 2.05 1.14 2.7 2.22 1.72 2.89 4.16 8.47 7.54 9.44q4.15 1.19 7.64 3.55.48.32.45.9c-.22 4.82-7.29 6.1-10.99 6.66a.66.65-11.3 0 0-.54.8c1.2 4.91 2.08 10.03-1.75 13.78q-.43.43-.28 1.01.43 1.71-.75 3.28a1.03 1.03 0 0 0-.06 1.14q.28.48.34 1.06a.73.71 72.1 0 1-.34.68q-3.14 1.88-4.16 5.37a.73.72 35.5 0 0 .11.63q2.78 3.88 6.7 5.74c3.67 1.75 6.04 4.88 7.92 8.38q.29.53-.22.86l-1.15.72a.66.66 0 0 0-.21.9q.37.61 1.22.71 14.7 1.71 29.81 1.58 4.12-.03 6 2.8.31.46.86.58 1.26.28 2.14 1.28.38.44.31 1.02-.16 1.24-.92 2.3a1.1 1.09 29.5 0 0 .46 1.65c3.83 1.6 8.89 1.76 13.06 1.71q12.29-.17 23.84.52c4.79.29 9.44 2.89 13.73 5.34q2.34 1.33 5.33 1.62c8.48.81 16.9.53 25.48.73 9.12.21 19.4-.01 27.14-1.38q7.16-1.27 11.44-7.04 2.08-2.8 1.17-6.86a1.18 1.17-81 0 0-.55-.76l-1.28-.74q-.49-.28-.58-.83l-.71-4.08q-.12-.7.4-1.19l1.38-1.26q.57-.53.57-1.31.08-11.62 1.52-20.32c.76-4.56-.43-8.71-.81-13.1q-.29-3.27-.13-6.39.77-15.64-.55-29.98c-.5-5.46.33-10.59.65-15.94q.46-7.75-.37-14.78-.43-3.74.03-7.5 1.01-8.09.36-17.74c-.08-1.21.27-3.23.9-4.5 2.05-4.11 3.92-7.84 4.91-12.37.95-4.34 2.98-8.23 4.8-12.19q4.91-10.66-1.21-19.65c-1.8-2.64-.58-5.47-.98-8.41q-.62-4.48.71-8.46.17-.54-.02-1.07-1.02-2.76-3.27-4.77a1.77 1.75-73.5 0 1-.58-1.08q-.56-4.22-1-8.61c-.33-3.2.8-6.37.69-9.49q-.24-7.33-2.4-15.35c-.35-1.31-.43-2.96-.16-4.3q1.03-5.22 2.22-10.99c.85-4.12.22-8.02-.66-12.07q-.97-4.51-1.2-9.01-.93-18.37 0-33.2c.46-7.15-.32-15.21.68-21.7q1.44-9.32-.18-17.21c-.63-3.03-.13-6.2-.48-9.31q-.6-5.43-.58-12.51c0-.84-.08-1.67-.53-2.39q-2.88-4.66-3.17-10.17-.55-10.11-1.73-19.27c-.85-6.6.12-13.28-1.28-19.77q-.72-3.34-1.04-6.67a2.23 2.22-82.7 0 0-1.46-1.89c-3.96-1.45-8.18-2.3-12.43-1.51q-5.12.94-10.01-.36c-3.58-.95-7.09.64-10.69-.58q-2.15-.73-4.2-.15-4.49 1.29-9.46.78-2.77-.28-5.41.15-6.44 1.03-12.96.14-3-.41-5.94-.16c-5.48.47-10.3.85-15.92-.06q-2.53-.4-5.93.21c-4.85.88-9.69-.4-14.73.18q-5.09.58-10.75-.17c-3.6-.47-7.02-.32-10.68.16q-4.05.54-8.09-.6-.49-.14-.99 0-1.66.46-3.16.55-5.78.34-11.71.43c-5.8.09-4.56 4.28-3.52 8.06a.6.6 0 0 1-.7.74q-1.24-.25-1.32 1.03a2 1.95-21.5 0 1-.58 1.29l-2.89 2.86q-.45.45-1.07.58c-4.79 1-5.13 2.29-3.74 6.79 1.59 5.13-6.16 7.92-9.75 7.21q-1.6-.32-3.34.3c-6.45 2.27-8.11 5.27-6.7 12.17q.39 1.9.22 4.22-.5 7.25.53 14.86.08.57.65.61c2.9.21 6.06-2.46 8.54-3.74q.61-.31 1.28-.2 3.46.57 6.4-1.08a.89.88 47.3 0 1 .92.04l.69.45q.47.31 1.03.33c3.9.16 8.64 1.65 9.21 6.15q.07.57-.33.98-5.85 6.06-11.55 12.45-3.53 3.96-4.14 8.2c-.73 5.07-2.56 10.35-4.19 15.1-1.21 3.55-.51 7.26-2.25 10.58q-1.56 2.98-2.39 6.34c-.4 1.63.58 2.89.52 4.53q-.17 3.83-.13 7.63a.66.65-10.1 0 0 .88.61c4.83-1.78 10.91-.52 15.78 1.09q.74.25.69 1.03l-.23 3.78q-.04.63-.62.88-5.23 2.32-11.09 2.03-.63-.03-1-.55l-3.4-4.77q-.4-.56-1.06-.37l-3.25.94q-.58.17-.68.77c-.57 3.53 3.16 6.83 6.05 8.4 3.36 1.81 6.58 2.31 8.75 5.87q2.23 3.66 4.12 7.47c2.69 5.44-10.15 10.34-13.18 11.54a.79.79 0 0 0-.47.94c1.1 4.19 1.79 10.22-.07 14.12q-2.54 5.31-5.88 11.29a2.3 2.29 34.6 0 0 .53 2.87c2.15 1.8 3.36 4.03 3.61 6.92q.87 10.39.42 20.37c-.03.55-.22.95-.46 1.44q-.24.51.07.98c1.9 2.87 1.23 5.86.26 9.09q-.16.53-.63.83l-1.27.84a1.06 1.05-16.1 0 0-.46.83c-.12 4.72 2.01 9.19 3.5 13.59.44 1.31.57 2.68.4 4.05q-.08.6.49.82 4.48 1.69 6.09 6.18.18.51-.05 1-1.71 3.68-3.36 4.25-8.2 2.84-7.6 11.62a.96.95-79.2 0 0 .53.79l6.36 3.07a.68.68 0 0 1 .04 1.2q-3.34 1.89-4.06 7.06a.75.75 0 0 0 .62.84c3.61.63 7.26 1.28 10.86 1.15q8.29-.3 15.47.49 4.31.48 8.55.68.25.01.45.15 2.04 1.49 3.32 3.47.38.59-.16 1.03-1.52 1.23-1.64 3.27a1.31 1.31 0 0 1-.87 1.16q-3.62 1.31-7.3 2.57c-4.68 1.61-9.22.12-13.7 2.77a.87.86 65.9 0 0-.38 1.01c.69 2.1 1.99 4.15.41 6.22-1.57 2.06-3.47 3.71-5.56 5.2a1.7 1.61 83.5 0 0-.61.81l-.25.71q-.43 1.21-.81-.02m-4.49-191.45q.22.73.94.96a.35.35 0 0 0 .45-.26q.21-1.03-.87-1.26-.74-.16-.52.56m537.41 151.67q.62 3.71 2.58 6.59.98 1.43 1.73-.12l1.24-2.56a3.34 3.31-45.5 0 0-.01-2.94c-2.65-5.39-5.05-10.32-10.17-13.72q-5.78-3.82-15.24-5.12a1.93 1.9-59.5 0 0-1.43.38c-1.34 1.03-2.7 2.31-2.58 4.19q.17 2.9.26 5.35a1.4 1.39 9.9 0 0 .87 1.23c4.34 1.77 8.07 1.64 12.65 1.93q.52.03.88.4c.96.99 1.79 1.83 3.2 2.17q2.71.67 5.35 1.46.57.17.67.76m-853.42-10.58c-3.75 1.5-7.34 3.63-7.6 7.98a1.5 1.48 7.6 0 0 1.2 1.55q7.06 1.4 13.6-.17c2.83-.67 7.02-4.6 5.59-7.78-2.39-5.32-8.52-3.31-12.79-1.58m342.375 103.78a.93.57 42.6 0 0-.3-1.05.93.57 42.6 0 0-1.07-.21.93.57 42.6 0 0 .3 1.05.93.57 42.6 0 0 1.07.21m-28.705 11.81 1.68 1.23a.39.38 37.3 0 0 .53-.07l.27-.34a.55.54 34.3 0 0-.16-.8q-1.62-.96-2.71-2.43a.73.73 0 0 0-1.31.34q-.18 1.29-1.02 2.32-1.57 1.93-1.6 4.07-.11 8.07.38 15.75a.55.55 0 0 0 .55.52l4.82-.06q.66-.01 1.19-.41c3.04-2.3 4.7-6.98 1.67-10.01-2.73-2.75-4.53-5.78-4.94-9.74a.41.41 0 0 1 .65-.37m23.35 96.18q-1.52-.61-2.79-.23-3.97 1.18-7.86 1.07c-5.06-.15-10.03.11-15.1-.17-3.2-.18-5.84.45-8.89.65-4.49.3-7.72 2.31-9.68 6.23-.72 1.42-.7 3.44.81 4.36 3.33 2.02 7.2 3.88 11.34 3.78q7.15-.17 14.31.21c2.99.16 5.49-2.56 8.3-1.66q4.52 1.43 7.81 1.37 11.6-.21 23.01-.21c3.77 0 6.98-2.02 10.68-1.75q6.47.49 12.79 1.52 2.53.41 4.66-.8.47-.27 1.01-.26 4.36.12 9.07.19 2.51.04 5.15.68c3.59.88 6.59-.66 10.15-.62q4 .05 7.93-.54 1.26-.19 2.67-.07 1.47.12 2.77.14 15.61.19 29.68.48 5.94.12 10.41-.52c3.49-.51 6.57-.56 9.86-.81q3.91-.3 7.6-.3 22.05-.01 43.65-.21 4.46-.05 10.77-1.39.5-.1.84-.49c1.4-1.59 3.75-4.01 2.05-6.03q-5.21-6.22-13.63-6.89-18.33-1.45-40.58-.16c-4.39.25-8.24 2.06-13.54.77q-2.89-.7-5.48-.6-7.15.26-13.55.85-3.13.3-6.07-.25c-4.71-.87-8.87-.06-13.51.14-5.42.25-10.95.11-16.33 1.1-2.75.51-5.99-.97-8.26-.73q-7.88.83-10 .82-22.37-.03-48.57.13c-2.97.02-5.74.49-8.66.8q-2.61.28-4.82-.6m130.26 50.63a1.62 1.62 0 0 1 1.33-1.28q2.96-.47 4.5-2.35c1.65-2 4.29-3.04 6.56-4.16a2 2 0 0 0 1.12-1.64l.93-11.12a1.24 1.23-77.8 0 0-.81-1.27c-1.67-.6-3.47-1.08-5.26-1.18q-11.02-.57-22.08-1.43c-5.95-.47-12.14-.36-18.2-.33-4.53.02-8.95.63-13.49.82-7.89.34-15.45 1.86-23.02 2.76q-5.38.64-11.8 2.63-8.99 2.79-16.49 4.9-5.04 1.41-10.56 5.68a1.46 1.46 0 0 1-.97.3l-6.67-.4a.69.63-57.1 0 0-.38.1l-4.19 2.53q-.45.27-.59.78l-1.06 3.69a2.52 2.52 0 0 1-1.87 1.77q-6.57 1.48-8.37 9.27-.24 1.03.18 2.06c1.32 3.24 1.78 4.34 5.4 5.2 2.66.63 5.34 1.22 8.08 1.3 7.14.2 13.83-.08 21.27.85q4.96.63 10.92.79 2.37.07 4.5-.32c3.81-.7 7.62-1.25 11.53-1.21q15.74.12 31.67.05 10.5-.04 12.74-.44c7.51-1.32 13.18-5.45 18.85-10.36 2.46-2.12 5.57-4.68 6.23-7.99"></path><path fill="#fff" d="m462.85 72.08.9-.23q.87 1.29-1.73 1.65-.62.08-.19-.37zm152.45 976.66a.89.88 57.1 0 0 .95.21q11.29-4.48 20.67-11.24c4.01-2.89 8.9-5.55 13.38-7.4q9.44-3.92 23.98-8.56 7.15-2.29 22.62-8.77 8.36-3.51 17.97-4.27 3.81-.3 7.62-1.54c6.33-2.06 12.55-4.17 19.08-5.93 12.8-3.44 25.83-6.6 38.86-9.82 6.15-1.52 12.19-4.52 18.21-6.56q5.4-1.82 9.71-3.77 24.35-11.02 37.84-21.09 9.87-7.37 16.84-19.21 6.78-11.52 13.35-24.75c2.08-4.19 3.42-8.99 3.84-13.49.53-5.6 2.66-10.63 2.56-16.34-.09-5.38.59-10.54-.17-16.16q-.42-3.08-.02-6.55c.4-3.53-.72-7.23.39-10.6 2.28-6.86 4.89-13.67 10.7-18.3 3.93-3.13 7.65-1.54 10.63 1.67q5.65 6.09 10.48 14.11c4.25 7.07 8.52 13.9 15.61 18.54 4.65 3.04 9.45 7.03 14.52 8.82q4.19 1.48 8.79 2.3c5.4.95 10.14-2.57 13.84-6.06q1.4-1.32 2.31-3.43c2.4-5.61 3.63-10.28 4.56-16.56q1.47-9.95 3.16-21.32c1.04-7.01 3.17-13.28 4.2-20 .86-5.56 3.08-10.44 3.89-16.01q.48-3.25 1.64-6.82 3.68-11.29 7.12-22.62c1.47-4.85 3.32-9.37 5.17-14.08 2.15-5.47 2.45-11.22 4.19-16.81.82-2.66-1.16-5.21-3.47-6.18q-7.17-3.02-14.89-6.15c-4.46-1.82-8-3.82-11.97-7.03q-10.1-8.16-20.42-16.01-4.39-3.34-9.74-10.77c-4.14-5.77-9.53-12.76-12.02-19.64q-5.19-14.35-7.85-26.35c-1.22-5.49-1.29-11.21-1.02-16.94q.41-8.78.9-17.07c.32-5.59 2.51-12.29 5.34-17.46q4.06-7.42 4.95-18.58c.18-2.24.69-4.49 1.69-6.51q2.15-4.37 4.29-9 1.71-3.68 2.12-7.43.71-6.49 1.62-12.78c.55-3.85 2.59-7.69 3.7-11.64q1.63-5.77 3.66-11.42c2.95-8.19 5.48-16.39 7.87-24.67q1.32-4.57 3.71-8.75c4.68-8.19 8.6-16.14 11.56-25.24 2.29-7.04 5.33-13.44 8.76-19.93 3.16-5.97 4.05-12.73 7.23-18.62q7.46-13.83 11.44-25.42 3.62-10.56 8.09-20c1.92-4.05 3.57-8.58 4.04-13.19q.41-3.99 2.36-8.25 1.88-4.09 1.13-8.13-.41-2.21-.52-4.38c-.11-2.09.17-3.89-.83-5.8-2.28-4.35-4.48-6.57-8.83-7.85-2.05-.6-1.66-2.94-.91-4.38q8.78-16.81 7.54-37.46-.23-3.71-1.74-6.86-2.01-4.17-3.96-8.82a1.37 1.37 0 0 1 1.04-1.88c3.06-.49 6.03 3.01 7.72 5.1q7.6 9.41 12.2 16.77c4.3 6.9 7.1 18.41 6 26.84q-.56 4.33-.79 8.64-.64 11.76-3.83 20.34-1.68 4.53-2.93 9.54c-1.17 4.75-3.42 8.94-4.74 13.8q-1.21 4.48-2.57 9.04c-1.5 5.05-4.37 9.27-5.94 14.27q-4.47 14.23-10.67 27.8c-1.93 4.23-3.81 10.11-6.13 15.06-3.39 7.24-5.49 14.61-8.59 21.55q-2.84 6.34-4.4 12-1.35 4.89-3.32 9.43c-1.79 4.16-3.31 8.54-5.34 12.53q-7.26 14.29-12.21 29.65c-1.7 5.27-3.9 10.36-5.98 15.49-1.43 3.51-1.37 7.41-3.27 10.72q-3.35 5.81-6.23 11.68c-1.46 2.98-.79 7.62-1.74 11.32q-2.91 11.39-4.78 16.23-3.34 8.62-4.11 16.35-1.35 13.43-2.85 28.85-.89 9.26 3.45 18.04c.3.6.1 1.81.31 2.63 3.13 12.25 7.97 24.48 14.98 35.01q3.25 4.88 5.88 10.09 1.41 2.79 3.65 4.76 9.07 8.01 20.41 16.75 2.85 2.2 6.08 2.65 2.22.31 4.32 1.11 5.9 2.26 12.2 3.83 8.09 2.02 12.53 8.09.75 1.04.49 2.27-1.43 6.64-4.32 13.75c-3.98 9.78-6.14 16.83-10.28 25.2-1.18 2.37-2.38 5.48-2.9 8.06q-1.64 8.2-3.94 14.68-1.99 5.58-3.22 11.12-1.3 5.82-2.91 11.55-3.11 11.1-5.03 22.45c-.85 5.02-1.95 9.84-3.25 14.72q-.96 3.61-.9 7.2c.06 3.26.43 6.41-.61 9.53q-1.97 5.92-2.29 13.09-.31 7.18-6.59 10.24-11.79 5.74-24.43 1.6-2.02-.66-4.3-.23a2.02 2.02 0 0 1-1.44-.26q-2.15-1.29-4.59-1.75c-3.34-.62-5.32-2.95-8.46-4.03q-2.24-.77-3.77-2.59-2.85-3.38-5.93-6.45c-2.78-2.76-3.54-6.53-5.17-9.97q-3.63-7.71-7.02-12.94-2.99-4.62-7.07-1.07c-2.12 1.85-3.01 6.63-2.92 9.55.3 9.81 1.2 20.07.18 29.93q-.6 5.74-2 11.62-3.6 15.09-5.82 20.36-6.99 16.57-9.92 21.18-7.55 11.88-10.87 15.92-1.57 1.92-6.58 6.6c-6.45 6.04-14.37 10.98-21.85 15.35-8.26 4.82-17.73 7.91-26.76 11.12q-6.63 2.36-13.14 3.83-8.46 1.91-16.4 4.74-16.86 6.01-33.47 10.17-4.49 1.12-8.74 2.47c-3.53 1.13-6.93 1.8-10.55 2.49-3.43.66-6.43 2.55-9.84 2.75q-1.75.11-3.54.59c-1.68.45-3.3.26-4.92.88-4.42 1.68-9.08 1.88-13.59 3.41-3.02 1.03-6.02 2.24-9.12 3.03q-5.52 1.41-10.25 3.45-18.43 7.96-33.53 15.17c-7.76 3.72-14.49 9.07-21.66 13.28-2.89 1.7-6.91 3.36-10.26 3.03-5.64-.57-10.85-4.99-15-8.84q-1.41-1.3-3.11-2.16-13.96-7.02-28.5-12.25c-9.34-3.37-19.23-5.4-28.51-7.93-3.47-.95-6.56-2.93-10.1-3.48-2.83-.44-5.56-.72-8.28-1.79-1.54-.6-3.05-1.33-4.72-1.58q-5.94-.89-11.57-2.71c-4.88-1.58-9.37-1.98-14.16-2.79q-2.22-.38-3.96-1.08c-1.73-.69-3.26-1.37-5.14-1.65-4.16-.61-8.21-.72-12.35-1.83q-15.08-4.03-22.68-4.58-10.87-.78-21.61-3.86c-3.06-.88-6.04-2.73-9.3-3.23q-1.66-.25-3.17-1.18c-1.23-.76-2.67-.91-3.99-1.53-14.53-6.87-28.67-14.48-40.49-25.37q-13.97-12.86-25.35-25.82c-1.27-1.45-2.68-3.57-3.42-5.35q-1.86-4.45-4.26-8.36c-6.57-10.74-10.82-23.73-12.53-36.32q-1.02-7.53-2.39-15.34c-.74-4.27-.79-8.42-1.66-12.49-.67-3.14-2.55-6.27-4.58-8.76-3.41-4.18-10.94.88-13.75 4.11q-8.83 10.17-21.26 17.95c-2.97 1.86-5.73 2.7-9.25 2.78q-7.86.16-11.12-.56-2.17-.48-5.55-3.08-1.86-1.43-2.47-3.49-.91-3.01-2.52-5.69-1-1.65-1.04-3.58c-.07-4.13-1.01-8.27-1.18-12.43-.37-9.38-1.75-18.22-4.92-27.01q-1.53-4.24-2.45-9.54-.51-2.97-2.21-6.5c-1.62-3.37-2.67-7.12-3.91-10.7-1.45-4.23-2.12-8.62-3.62-12.98-4.92-14.25-11.36-26.69-19.07-39.36-3.62-5.95-6.03-12.05-7.86-18.56-.63-2.26-.99-5.08.86-6.94q4.73-4.74 9.18-6.37c6.59-2.39 12.95-4.31 18.96-8.6 10.53-7.51 17.41-16.96 24.42-27.66q2.88-4.4 4.55-9.8 3.61-11.68 5.55-22.5c1.41-7.89 1.62-16.07 2.15-24.13q.18-2.73.72-5.43c.81-4.08-.11-7.35-.08-11.2q.01-2.28-.5-4.49c-1.95-8.33-2.19-17.59-3.37-23.06q-2.57-11.8-3.72-22.59-.16-1.52-.6-3.19-.42-1.59-.92-3.13-2.79-8.42-6.42-17.93c-2.77-7.27-4.14-15.46-6.25-23.05-1.5-5.43-4.75-9.93-6.52-15.27q-2.32-6.98-5.04-13.35c-3.42-8.04-5.12-16.29-9.31-24.13-1.76-3.3-2.85-6.88-4.31-10.29q-1.38-3.21-2.5-6.67c-1.01-3.08-2.67-5.72-3.5-8.88-1.92-7.31-3.96-14.61-7.21-21.59q-3.22-6.9-5.74-14.14c-1.54-4.43-4.29-8.47-5.41-12.98-.51-2.04-1.02-4.06-2.11-5.86-1.47-2.43-2.74-4.59-3.71-7.34q-3.36-9.56-6.59-18.97-1.82-5.31-2.03-11.22c-.09-2.47-.38-5.05-1.17-7.37q-4.56-13.4-5.36-26.07c-.38-5.88.62-11.77.71-17.71.05-3.11 1.03-6.47 2.25-9.31q3.4-7.95 9.88-17.52 1.97-2.91 4.95-4.88a1.7 1.7 0 0 1 2.64 1.38c.06 2.79-.04 5.62-1.27 8.17-1.97 4.09-1.82 8.25-1.92 12.71q-.09 3.86.95 7.96c1.03 4.06 1.86 8.17 3.7 11.91q4.1 8.33 9.54 15.42c6.84 8.91 18.01 15.57 28.4 19.95 3.93 1.66 7.88 1.32 12.02 1.35 13.37.08 26.25-6.45 35.18-16.25q3.27-3.59 6.46-9.69c7.33-14.01 15.73-27.93 26.07-39.92q5.49-6.37 10.1-14.42 3.92-6.85 8.35-12.65 14.51-18.99 27.44-31.21c11.11-10.47 21.45-21.65 32.46-32.12q5.51-5.23 10.98-9 11.45-7.9 21.77-15.69 4.4-3.32 7.07-8.77c3.11-6.36 2.4-16.36.85-23.11-.52-2.24-1.72-3.93-2.63-5.97q-.24-.53-.1-1.09.69-2.72 2.25-4.69c6.28-7.92 13.33-15.73 22.4-20.77q6.21-3.45 12.81-7.15c2.21-1.24 4.01-2.9 6.52-3.61q5.43-1.55 10.69-3.1c4.74-1.4 9.71-1.31 14.56-2.29 6.16-1.25 12.04-1.54 18.34-.35 8.47 1.59 16.88 2.34 24.6 6.46q11.2 5.98 22.13 15.28c6.51 5.54 11.74 12.03 16.62 18.54q1.28 1.69 2.06 3.62.2.51-.22.87c-5.18 4.38-12.02 1.8-16.45-2.2-11.37-10.28-23.14-19.43-37.11-25.66-3.5-1.56-7.19-3.01-11.11-2.95q-4.52.08-8.49-1.49-2.35-.93-4.86.13-14.98 6.38-28.13 12.2-11.2 4.96-21.34 12.72-3.84 2.94-6 6.17c-2.11 3.13-4.71 8.11-4.05 12q.86 5.05 2.22 10.12c.74 2.74.67 5.73-.07 8.45-1.12 4.13-2.08 8.31-4.55 11.92-5.1 7.45-11.38 12.14-19.57 17.09q-10.05 6.08-22.73 15.68-6.74 5.1-12.87 10.65-8.37 7.58-13.14 13.05-2.59 2.97-4.86 4.87-2.97 2.48-5.46 5.14-5.94 6.36-12.39 11.19-2.19 1.63-3.99 4.2-6.9 9.82-13.07 16.27-4.61 4.82-9.85 10.11-1.36 1.37-2.33 3.25c-2.56 4.99-5.99 9.53-9.03 14.38q-8.18 13.07-10.37 18.14c-6.42 14.9-13.18 29.22-28.64 36.73-4.86 2.36-9.41 4.82-14.81 6.89q-3.19 1.23-6.87 1.35-6.76.21-11.92-.05c-4.59-.23-9.15-2.28-13.85-2.96q-4.79-.69-7.18-2.29-7.02-4.7-14.69-9.28-1.29-.78-2.75-.41c-4.52 1.16-8.98 5.68-7.03 10.59q2.06 5.22 2.16 10.58.04 2.26 1.28 4.85 7.59 15.82 13.12 33.31 1.73 5.49 3.73 9.41 2.6 5.1 4.35 9.66c2.56 6.69 6.32 13.01 9.02 19.74l11.81 29.48c1.48 3.69 3.37 7.17 4.51 11.09q1.89 6.5 4.46 12.28c3.3 7.38 4.68 16.07 7.7 23.13q3.14 7.33 4.58 13.25 4.11 16.99 7.7 30.27c2.97 11.01 5.55 22.48 8.12 33.7 1.34 5.85 2.27 12.19 2.31 18.38q.08 11.83 1.63 22.7.33 2.35-.13 4.88-1.04 5.73-.87 13.13.13 5.36-1.25 12.45-2.06 10.55-5.35 21.11c-2.97 9.53-8.82 18.05-15 26.03-5.93 7.65-12.8 14.27-20.74 19.62-5.04 3.4-10.55 6.72-14.18 11.65q-1.47 2-1.28 4.76c.38 5.47 1.82 8.96 4.68 14.12 5.05 9.1 9.16 19.11 12.82 28.71q2.42 6.35 4.25 13.15 2.19 8.17 5.24 15.93 1.62 4.12 2.41 8.67c1.84 10.63 4.39 21.44 7.93 31.21 1.49 4.12 7.64 9.03 12.46 7.54 5.05-1.56 11.4-6.86 14.7-10.87 7.27-8.85 19.78-27.73 33.75-22.59 4.03 1.48 7.63 7.88 8.32 11.14q.47 2.17.55 4.71c.11 3.31.32 6.47.14 9.76-.28 5.06 1.79 8.87 2.02 13.51q.21 4.21.89 7.84c.79 4.19 1.29 8.39 2.52 12.46 1.59 5.24 2.46 10.77 4.1 15.93 4.17 13.15 11.22 24.47 18.89 35.88q8.53 12.71 18.96 20.48 2.56 1.9 15.64 10.83 7.2 4.92 16.35 10.06c15.03 8.45 31.75 12.83 48.7 16.01q1.45.27 2.8.9c3.12 1.43 6.43 1.52 9.71 2.3 2.92.69 5.18 3.07 8.19 1.04q.49-.33 1-.04c.67.39 1.24.81 2.02.99q8.61 1.98 18.07 3.7 8.88 1.62 17.59 4 12.54 3.42 25.48 6.2 7.39 1.58 13.61 3.44c6.03 1.79 12.21 3.52 17.97 5.81q9.43 3.75 17.91 5.81 2.54.62 4.81 2.07 7.02 4.46 13.61 6.61c1.05.34 2 1.17 2.76 1.95"></path><path fill="#fff" d="M922.1 326.77c9.22 7.44 18.61 10.28 30.2 12.91q13.59 3.09 25.7.08c1.06-.26 2.24-.04 3.25.28a1 1 0 0 1 .59 1.42c-.6 1.15-1.36 2.27-2.42 3.03q-5.28 3.75-10.58 7.05c-6.33 3.93-15.91 3.78-23.52 2.95q-3.76-.41-8-2.38c-7.26-3.38-16-5.63-22.05-11.18q-10.9-10.01-18.27-20.56c-4.42-6.35-8.17-12.77-13.03-19.33-7.42-10.02-13.53-21.64-21.21-33.26-6.22-9.4-13.74-18.36-20.3-27.21q-1.12-1.51-2.77-3.03-12.67-11.68-27.27-23.64c-6.61-5.41-14.27-9.95-20.58-15.59q-5.43-4.86-10.71-7.91c-8.24-4.78-17.04-9.12-24.53-15.24q-5.62-4.6-6.24-11.3-.7-7.58-1.32-15.22-.32-3.86-1.88-7.59c-3.61-8.63-8.32-16.02-15.6-21.55q-3.77-2.86-7.49-6.14c-1.06-.93-2.49-1.74-3.87-2.11q-5.23-1.42-8.1-3.14-5.46-3.27-11.71-5.65c-1.98-.76-3.62-.23-5.58-.91a1.78 1.71 46.1 0 0-1-.04c-.91.25-1.66.49-2.6.06q-4.76-2.18-10.66-1.82-6.81.42-13.29.57c-8.28.19-14.46 4.8-20.7 9.69q-7.47 5.85-15.47 11.06-2.87 1.87-9.21 4.68-4.77 2.11-10.19 5.63-2.35 1.52-4.73.89c-1.41-.38-2.3-1.91-3.48-2.75q-.6-.44-.35-1.14 1.1-3.11 3.62-5.64 5.78-5.82 11.3-12.51c2.54-3.07 5.97-5.73 9.41-7.98 8.47-5.56 15.98-10.49 26.06-14.29q8.07-3.04 14.83-3.57 17.84-1.39 33.11 2.3 3.49.85 6.96 1.36c3.29.5 6.5.89 9.58 2.5q6.78 3.55 13.31 6.78c6.01 2.97 9.69 6.69 15.8 12.32q6.84 6.31 12.77 12.91 4.1 4.56 4.27 10.96.2 7.59-.5 15.62c-.38 4.39.21 11.75 2.74 15.69q2.97 4.65 7.84 7.77 20.56 13.19 40.65 25.94 3.23 2.04 5.88 4.51c7.78 7.24 15.61 14.02 21.3 20.35q9.69 10.77 20 21.75c4.87 5.18 9.53 10.97 13 17.23 3.61 6.51 7.16 12.97 11.3 19.24q10.02 15.19 17.94 24.2 5.06 5.77 9.28 11.38 5.14 6.84 8.52 9.57m-518.43-184.9c-.92 11.75-12.37 18.58-21.29 24.23q-3.13 1.98-5.58 4.31-6.93 6.59-13.34 12.91-1.23 1.21-2.96 1.93c-2.48 1.02-3.05 3.45-4.93 5.07-4.74 4.1-8.37 8.51-12.11 13.85q-2.24 3.2-5.48 6.93-8.32 9.57-16.86 18.72-4.92 5.26-7.73 9.44c-2.98 4.43-5.73 8.85-9.18 12.9q-5.65 6.64-10.65 13.09-.38.49-.97.63c-5.45 1.29-8.85-3.39-11.31-7.72a79.65 79.65 0 0 0-23.8-26.06q-5.19-3.61-9.87-7.59-3.48-2.96-.82-6.46c3.04-4.01 6.91-7.21 10.34-11.06q5.3-5.95 7.62-7.9c8.89-7.45 16.89-14.46 23.49-23.68q11.51-16.08 22.38-31.49 4.46-6.33 8.38-13.82c3.9-7.45 8.2-13.84 12.17-20.67q3.65-6.3 6.24-9.01c3.84-4.01 8.88-8.08 14.4-9.24 17.53-3.67 41.02 9.48 47.8 25.95q5.03 12.24 4.06 24.74"></path><path fill="#fff" d="M791.75 153.61q-1.02-.42-.62-1.42.28-.7.07-1.43-2.39-8.17-.02-16.82c1.52-5.55 3.51-11.62 6.57-16.53q4.58-7.36 11.86-14.49 5.85-5.73 12.76-8.24c5.26-1.91 11.32-1.6 16.97-1.49 5.58.1 10.11 4.79 13.04 9.15 2.05 3.06 3.53 6.44 5.83 9.32q5.96 7.47 7.73 10.03 8.72 12.59 19.47 22.83c12.23 11.65 23.22 23.49 36.09 34.73q12.28 10.72 23.34 21.11 3.81 3.57 7.7 6.92 7.75 6.67 13.04 15.05 2.73 4.3-1.51 7.09-5.06 3.33-10.41 5.42-3.22 1.26-6.16 3.43c-5.48 4.06-11.68 7.84-15.92 13.18q-4.02 5.05-8.14 9.46-1.96 2.1-3.01 4.97c-1.6 4.35-5.63 7.02-9.55 2.77q-5.08-5.49-9.44-13.1-1.72-3-4.38-6.24-10.42-12.71-20.1-25.17c-4.8-6.19-10.8-10.54-16.04-16.23q-4.38-4.73-8.98-9.17-5.17-4.98-15.02-11.41c-5.36-3.49-9.77-7.51-14.91-10.95q-12.73-8.5-23.93-17.44-1.53-1.22-4.31-2.11-.54-.17-.73-.7l-.62-1.81q-.18-.5-.67-.71m-5.59-59.73q-.47.95-1.53 1.5-1.41.72-2.13-.31l1.87-.02q.49-.01.76-.42.29-.45 1.03-.75m-62.05 59.11q.87 2.64.45 5.72zM455.6 329.65q-.41.93-1.44.69c-5.85-1.34-9.74-2.98-13.39-7.94q-3.14-4.27-5.38-8.42c-.63-1.16-.36-2.44.35-3.49q4.92-7.24 13.8-14.18 10.42-8.14 21.41-16.59c12.8-9.85 24.69-20.78 36.99-30.35q3.48-2.7 6.52-5.42c6.46-5.79 13.71-10.34 20.28-15.94q9.79-8.33 20.37-16.63 6.5-5.1 13.53-11.57 6.66-6.13 14.41-12.1 5.89-4.53 11.34-6.29c2.84-.92 5.64.09 8.25 1.44q11.54 5.97 18.99 12.99c5.88 5.53 11.8 11.52 18.56 16.15q9.46 6.49 18.9 15.06c4.08 3.71 8.99 6.35 13.53 9.32q9.1 5.93 17.94 13.68 6.59 5.77 13.56 11.13 7.23 5.54 13.85 10.77 4.77 3.76 10.71 12.24c2.3 3.29 3.22 7.57-.35 10.57a1.24 1.24 0 0 1-1.38.15q-2.55-1.31-4.64-3.27c-4.2-3.97-9.54-6.59-14.04-10.21q-17.83-14.36-37.55-29.65c-1.97-1.53-4.18-2.65-6.09-4.22q-18.65-15.38-37.3-30.75-2.24-1.84-4.77-3.7c-3.15-2.31-6.61-4.27-9.28-7.2-1.71-1.88-3.33-4.1-5.71-5.06q-2.66-1.08-5.17-2.48c-6.8-3.79-14.11-.51-19.77 3.57q-12.27 8.84-23.35 19.8c-3.59 3.56-7.38 7.08-11.53 10.13-5.24 3.85-10.42 7.59-15.4 11.83-8.69 7.39-17.13 14.78-26.21 21.85q-6.78 5.29-12.03 10.77-3.21 3.35-7.09 6.3-3.69 2.8-7.51 6.96-6.06 6.58-6.48 14.19-.3 5.6 3.61 8.94 4.1 3.52 9.44 5.31 3.9 1.31 9.52 1.49 14.27.46 26.89 1.07c9.37.46 19.71-1.55 28.77-1.61 7.7-.04 15.74.4 23.49-.23q4.28-.34 8.36-.6c3.16-.21 6.22.7 9.46.66q5.01-.05 11.39.75 2.13.26 6.51-.63 3.26-.67 9.31.88.53.13.62.67c.86 4.94-2.6 6.4-6.74 6.42q-6.33.03-12.49.91c-4.56.66-9.44-.04-14.22.37-3.84.33-7.48-.61-11.3.04q-5.32.91-7.15.84-24.14-.96-48.25.65c-5.62.38-14.23-.32-21.32.3-3.31.29-6.62.71-9.95.73q-11.49.07-23.29.11c-1.45 0-2.78-.29-4.2-.61q-.61-.14-1.17.15-1.65.84-2.71-.84-1.15-1.82-2.01.1M3.09 215.5q.02-.04.01-.08 0-.04.02-.06.03-.03.06 0 .01.02.01.04-.15 2.74-.77 5.42-.01.04-.05.04l-.3-.05q-.2-.04-.18-.24.26-2.62 1.2-5.07M0 230.37v-2.12l.75-5.76a.31.31 0 0 1 .59-.07q.14.38.4.68a1.54 1.52 28.7 0 1 .37 1.25L.7 232.86a.21.21 0 0 1-.24.18l-.25-.03a.07.07 0 0 1-.06-.09q.44-1.34-.15-2.55m401.96-.32-6.2 6.16zm324.61 15.7q1.29.75 2.14 2.6-1.36-.91-2.14-2.6"></path><path fill="#fff" d="M568.49 291.39c-3.83-.57-2.48-4.07-5.04-5.16-3.16-1.36-5.66-3.68-9.13-4.32-4.11-.77-7.36-1.14-11.75-.45q-2.93.46-6.06.18a.47.47 0 0 1-.36-.71c.97-1.67 2.12-3.27 3.69-4.46q10.05-7.58 19.78-15.41c1.99-1.61 8.71-5 10.22-1.04 1.28 3.36 3.19 7.19 2.96 10.78-.15 2.33-.27 4.69.4 6.93q2.66 8.84 10.22 16.41c1.8 1.8 3.42 2.72 6 2.64 5.77-.19 9.75-.87 13.68-5.38q4-4.6 9.36-8.02 1.33-.85 2.75-.28 4.97 2.01 9.77 4a1.74 1.73 83.9 0 1 .8.65c1.19 1.8 2.92 3.79 2.71 6.07q-.34 3.87-2.4 6.83-.38.54-1.02.72-9.03 2.57-16.05 3.14c-6.36.51-13.1-.19-19.69.1q-7.08.31-15.33-.03-1.47-.06-2.77-.63a1.3 1.29-1.3 0 1-.65-.62q-2.76-5.57-1.68-11.37a.49.49 0 0 0-.41-.57m-58.85 3.82c6.02-4.05 13.07-6.86 20.3-9.73a1.79 1.79 0 0 1 2.4 1.29q1.07 5.09 1.71 11.15.54 5.23-5.39 6.67-9.74 2.36-18.91-.09c-5.99-1.6-3.65-6.9-.11-9.29m-270.2-.56c3.38 3.76 10.29 10.09 15.81 7.12q3.6-1.94 7.6-3.64a1.19 1.18-17.6 0 1 1.63.84q1.03 4.71-1.68 8.4-7.36 10.05-20.32 11.71c-7.62.97-19.02-9.35-20.78-16.34q-.56-2.22-1.68-4.25-1.29-2.35-1.4-6.21c-.11-3.88 2.9-6.32 6.56-6.47q2.05-.08 4.85 1.51 5.75 3.25 9.41 7.33m710.48 9.5c3.66 2.43 8.39 1.16 11.65-1.53 2.53-2.08 4.45-4.78 7.09-6.75q4.28-3.21 8.33-5.28c5.15-2.62 9.16 3.98 10.75 8.2q.19.49.05 1c-2.16 7.7-8.71 11.43-15.16 15.15-4.38 2.53-9.77 3.92-14.96 2.41q-1.97-.57-4.37-.69c-3.91-.18-8.24-4.71-9.82-7.93q-1.23-2.49.03-5.61a1.79 1.78-69.3 0 1 2.24-1.02q2.26.78 4.17 2.05M780.3 323.54l-14.6 12.79q6.45-7.85 14.6-12.79m-362.06 2.75q2.74.45 4.84 2.47zm642.48 8.48-.33 3.43q-.26-1.99.33-3.43m-515.98 9.22a2.71 2.69 50.2 0 0 2.01.19q3.38-1.03 6.03-1.07c17.53-.23 31.53.19 47.24-.01 21.22-.25 46.17.18 69.96-.45q12.59-.33 24.91-.54c3.27-.06 6.58.86 9.75.52q7.99-.85 15.36-.26 2.33.19 4.09 1.99 3.06 3.12-.56 5.81-5.71 4.25-12.78 4.11-21.14-.43-43.9.2c-3.7.1-7.36-.69-11.01-.35q-9.92.91-18.91.77c-5.84-.1-12.02.96-18.34.66q-1.11-.05-3.34.49-.52.13-.88.52c-3.97 4.23-11.79 2.05-16.09-.57q-1.84-1.12-3.79-.49c-1.6.52-3.03.49-4.68.54-2.11.06-3.52-1.4-5.61-1.52q-4.75-.28-10.57 1.56a1.09 1.05-39.6 0 1-.82-.06q-.74-.37-1.48-.72c-2.2-1.03-7.53-.41-9.85-.07-5.57.83-11.31.08-16.98.19q-17.24.35-38.73.41c-2.31.01-4.39.03-6.65.54-3.07.69-5.4-.59-8.34-.59q-4.27.01-8.55-1.1c-3.84-.99-6.16-3.09-4.87-7.36q.41-1.38 1.63-1.74 4.67-1.41 10.01-1.51c4.91-.08 9.8-1.5 14.5-.74q6.62 1.06 12.77.4c8.2-.87 16.57-.9 24.74-.71q1.98.04 3.73.96m-301.28 36.84q-4.33-1.14-8.72-.93-.62.03-1.38.39-.72.35-1.41.46 5.3-2.94 11.51.08m-81.62-.36q2.36 3.58 2.74 7.58zm68.04 3.07.01 5.21q-.76-2.67-.01-5.21M0 408.63V394.5q.45-1.94.59-3.92.01-.15.16-.14.13 0 .13.13-.02 9.49-.01 18.81 0 .72-.21 1.36-.17.52-.27-.02zm509.99 307.6.25-.71a1.7 1.61 83.5 0 1 .61-.81c2.09-1.49 3.99-3.14 5.56-5.2 1.58-2.07.28-4.12-.41-6.22a.87.86 65.9 0 1 .38-1.01c4.48-2.65 9.02-1.16 13.7-2.77q3.68-1.26 7.3-2.57a1.31 1.31 0 0 0 .87-1.16q.12-2.04 1.64-3.27.54-.44.16-1.03-1.28-1.98-3.32-3.47-.2-.14-.45-.15-4.24-.2-8.55-.68-7.18-.79-15.47-.49c-3.6.13-7.25-.52-10.86-1.15a.75.75 0 0 1-.62-.84q.72-5.17 4.06-7.06a.68.68 0 0 0-.04-1.2l-6.36-3.07a.96.95-79.2 0 1-.53-.79q-.6-8.78 7.6-11.62 1.65-.57 3.36-4.25.23-.49.05-1-1.61-4.49-6.09-6.18-.57-.22-.49-.82c.17-1.37.04-2.74-.4-4.05-1.49-4.4-3.62-8.87-3.5-13.59a1.06 1.05-16.1 0 1 .46-.83l1.27-.84q.47-.3.63-.83c.97-3.23 1.64-6.22-.26-9.09q-.31-.47-.07-.98c.24-.49.43-.89.46-1.44q.45-9.98-.42-20.37c-.25-2.89-1.46-5.12-3.61-6.92a2.3 2.29 34.6 0 1-.53-2.87q3.34-5.98 5.88-11.29c1.86-3.9 1.17-9.93.07-14.12a.79.79 0 0 1 .47-.94c3.03-1.2 15.87-6.1 13.18-11.54q-1.89-3.81-4.12-7.47c-2.17-3.56-5.39-4.06-8.75-5.87-2.89-1.57-6.62-4.87-6.05-8.4q.1-.6.68-.77l3.25-.94q.66-.19 1.06.37l3.4 4.77q.37.52 1 .55 5.86.29 11.09-2.03.58-.25.62-.88l.23-3.78q.05-.78-.69-1.03c-4.87-1.61-10.95-2.87-15.78-1.09a.66.65-10.1 0 1-.88-.61q-.04-3.8.13-7.63c.06-1.64-.92-2.9-.52-4.53q.83-3.36 2.39-6.34c1.74-3.32 1.04-7.03 2.25-10.58 1.63-4.75 3.46-10.03 4.19-15.1q.61-4.24 4.14-8.2 5.7-6.39 11.55-12.45.4-.41.33-.98c-.57-4.5-5.31-5.99-9.21-6.15q-.56-.02-1.03-.33l-.69-.45a.89.88 47.3 0 0-.92-.04q-2.94 1.65-6.4 1.08-.67-.11-1.28.2c-2.48 1.28-5.64 3.95-8.54 3.74q-.57-.04-.65-.61-1.03-7.61-.53-14.86.17-2.32-.22-4.22c-1.41-6.9.25-9.9 6.7-12.17q1.74-.62 3.34-.3c3.59.71 11.34-2.08 9.75-7.21-1.39-4.5-1.05-5.79 3.74-6.79q.62-.13 1.07-.58l2.89-2.86a2 1.95-21.5 0 0 .58-1.29q.08-1.28 1.32-1.03a.6.6 0 0 0 .7-.74c-1.04-3.78-2.28-7.97 3.52-8.06q5.93-.09 11.71-.43 1.5-.09 3.16-.55.5-.14.99 0 4.04 1.14 8.09.6c3.66-.48 7.08-.63 10.68-.16q5.66.75 10.75.17c5.04-.58 9.88.7 14.73-.18q3.4-.61 5.93-.21c5.62.91 10.44.53 15.92.06q2.94-.25 5.94.16 6.52.89 12.96-.14 2.64-.43 5.41-.15 4.97.51 9.46-.78 2.05-.58 4.2.15c3.6 1.22 7.11-.37 10.69.58q4.89 1.3 10.01.36c4.25-.79 8.47.06 12.43 1.51a2.23 2.22-82.7 0 1 1.46 1.89q.32 3.33 1.04 6.67c1.4 6.49.43 13.17 1.28 19.77q1.18 9.16 1.73 19.27.29 5.51 3.17 10.17c.45.72.53 1.55.53 2.39q-.02 7.08.58 12.51c.35 3.11-.15 6.28.48 9.31q1.62 7.89.18 17.21c-1 6.49-.22 14.55-.68 21.7q-.93 14.83 0 33.2.23 4.5 1.2 9.01c.88 4.05 1.51 7.95.66 12.07q-1.19 5.77-2.22 10.99c-.27 1.34-.19 2.99.16 4.3q2.16 8.02 2.4 15.35c.11 3.12-1.02 6.29-.69 9.49q.44 4.39 1 8.61a1.77 1.75-73.5 0 0 .58 1.08q2.25 2.01 3.27 4.77.19.53.02 1.07-1.33 3.98-.71 8.46c.4 2.94-.82 5.77.98 8.41q6.12 8.99 1.21 19.65c-1.82 3.96-3.85 7.85-4.8 12.19-.99 4.53-2.86 8.26-4.91 12.37-.63 1.27-.98 3.29-.9 4.5q.65 9.65-.36 17.74-.46 3.76-.03 7.5.83 7.03.37 14.78c-.32 5.35-1.15 10.48-.65 15.94q1.32 14.34.55 29.98-.16 3.12.13 6.39c.38 4.39 1.57 8.54.81 13.1q-1.44 8.7-1.52 20.32 0 .78-.57 1.31l-1.38 1.26q-.52.49-.4 1.19l.71 4.08q.09.55.58.83l1.28.74a1.18 1.17-81 0 1 .55.76q.91 4.06-1.17 6.86-4.28 5.77-11.44 7.04c-7.74 1.37-18.02 1.59-27.14 1.38-8.58-.2-17 .08-25.48-.73q-2.99-.29-5.33-1.62c-4.29-2.45-8.94-5.05-13.73-5.34q-11.55-.69-23.84-.52c-4.17.05-9.23-.11-13.06-1.71a1.1 1.09 29.5 0 1-.46-1.65q.76-1.06.92-2.3.07-.58-.31-1.02-.88-1-2.14-1.28-.55-.12-.86-.58-1.88-2.83-6-2.8-15.11.13-29.81-1.58-.85-.1-1.22-.71a.66.66 0 0 1 .21-.9l1.15-.72q.51-.33.22-.86c-1.88-3.5-4.25-6.63-7.92-8.38q-3.92-1.86-6.7-5.74a.73.72 35.5 0 1-.11-.63q1.02-3.49 4.16-5.37a.73.71 72.1 0 0 .34-.68q-.06-.58-.34-1.06a1.03 1.03 0 0 1 .06-1.14q1.18-1.57.75-3.28-.15-.58.28-1.01c3.83-3.75 2.95-8.87 1.75-13.78a.66.65-11.3 0 1 .54-.8c3.7-.56 10.77-1.84 10.99-6.66q.03-.58-.45-.9-3.49-2.36-7.64-3.55c-3.38-.97-5.82-6.55-7.54-9.44-.65-1.08-1.61-1.65-2.7-2.22a2.21 2.2 17.4 0 1-1.16-2.21q.43-3.44 2.08-6.45a2.08 2.07-58.1 0 0-.63-2.72q-1.44-1.01-2.3-2.62-.27-.52-.77-.81l-3.83-2.25a1.55 1.55 0 0 1 .34-2.81c2.9-.89 6.19-2.06 9.32-1.2 4.18 1.14 7.18-1.12 11.14-1.65q5.31-.7 10.68-1.84a.97.97 0 0 0 .73-.68q.74-2.55.68-4.58-.04-1.51-1.55-1.54-8.55-.15-16.91-.34c-4.68-.1-8.94-.93-13.63-.62-1.9.13-6.02.05-7.69-.9-3.12-1.78-5.3-4.88-4.16-8.61a2.18 2.17 30.1 0 1 3.56-.94q3.04 2.85 6.7 4.83.51.27.71.81.06.18.11.35.38 1.23.81.02m3.49-284.21c3.28 2.39 7.65 2.31 11.53.72 2.28-.93 2.32-6.04-.09-6.19-1.96-.12-3.69-.07-5.45-.85-2.15-.95-4.97-.97-6.66.92q-2.65 2.97.67 5.4m145.69 43.69q-3.1-6.38-6.11-12.36-1.79-3.56-5.03-7.03-7.46-7.98-15.16-15.7c-3.93-3.94-8.8-6.21-14.21-7.36q-8.82-1.88-17.5-3.81c-2.19-.48-5.53-.72-7.36-.39-6.28 1.15-12.95 1.73-18.75 3.79-10.8 3.84-20.72 11.3-28.21 20.58q-3.26 4.04-4.7 8.63c-2.92 9.34-4.45 18.6-4.24 28.77q.22 10.67-.47 19.87-.32 4.16-1.94 9.87-1.28 4.53-1.17 13.18.16 13.04 3.36 25.62c.68 2.66.9 5.03.93 7.66q.11 9.35.08 18.62c-.01 3.86.97 7.43.7 11.33q-.51 7.26 1.06 13.82c1.66 6.92 5.95 10.35 12.71 10.23 4.57-.08 9.02.33 13.58.2q9.44-.28 18.42.12c6.35.28 12.43-.46 18.71-.51 1.86-.01 3.68-1.08 5.45-.95q12.14.9 23.22-.95c2.31-.39 4.63-.09 6.95 0 4.2.16 7.88-.92 11.94-1.19 4.77-.32 8.6-2.89 9.78-7.4q1.76-6.71 3.2-13.58c2.04-9.77 2.33-21.99-.47-32.21-1.24-4.53-2.18-9.18-1.96-13.83q.15-3.35-.42-6.46-.57-3.09-.32-6.28.95-12.48 3.35-22.61.62-2.58-.18-5.51-.62-2.3-.61-4.81c.02-4.7.29-9.1-.65-13.64-1.13-5.38-1.46-10.54-3.98-15.71m-156.35-32.54 2.74 1.23a1 1 0 0 0 1.32-.5l.05-.11a3.76 2.36-65.8 0 0-.61-4.4l-.26-.11a3.76 2.36-65.8 0 0-3.69 2.46l-.05.11a1 1 0 0 0 .5 1.32m22.66 199.4c-2.68-2.22-6.98-4.43-10.41-3.11q-1.48.56-2.91.67c-2.48.2-4.02 2.17-4.38 4.49a1.03 1.02-56 0 0 .13.69q2.78 4.61 8.27 3.43 4.9-1.06 9.11-3.61a1.58 1.57 49.4 0 0 .19-2.56m17.46 10.04q-4.34-.94-7.55 2.64-.45.49.01.98l2.77 2.96q.47.51 1.16.62l3.96.63q3.1.49 3.11-2.65 0-.92-.17-1.82-.53-2.77-3.29-3.36m-13.49 25.15c2.53 1.76 5.49 4.61 8.72 2.84q1.91-1.05 3.56-2.3a2.44 2.42 56.9 0 0 .65-3.12c-2.1-3.8-6.14-4.09-9.37-1.61q-1.67 1.29-3.46 2.26a1.14 1.13 48 0 0-.1 1.93m-13.49-.01q1.15.35 2.34.28 1.91-.11.92-1.76-1.5-2.47-3.86-.77-.95.7-.12 1.76a1.43 1.41-10.5 0 0 .72.49m15.05 32.39-.54.57q-.52.55.2.76 4.09 1.2 6.58-1.26a2.31 2.31 0 0 0 .27-2.95q-1.87-2.73-4.64-4.79-.43-.33-.91-.07-3.13 1.7-2.6 4.54.14.76.7 1.29l.92.9q.52.5.02 1.01m19.517 1.645a5.14 4 127 0 0 6.287-1.698 5.14 4 127 0 0-.1-6.512 5.14 4 127 0 0-6.288 1.698 5.14 4 127 0 0 .1 6.512Z"></path><path fill="#161615" d="M525.01 432.74c-3.88 1.59-8.25 1.67-11.53-.72q-3.32-2.43-.67-5.4c1.69-1.89 4.51-1.87 6.66-.92 1.76.78 3.49.73 5.45.85 2.41.15 2.37 5.26.09 6.19"></path><path fill="#fff" d="M717.56 425.25q.86 11.77-.14 23.73z"></path><path fill="#161615" d="M659.17 475.71c2.52 5.17 2.85 10.33 3.98 15.71.94 4.54.67 8.94.65 13.64q-.01 2.51.61 4.81.8 2.93.18 5.51-2.4 10.13-3.35 22.61-.25 3.19.32 6.28.57 3.11.42 6.46c-.22 4.65.72 9.3 1.96 13.83 2.8 10.22 2.51 22.44.47 32.21q-1.44 6.87-3.2 13.58c-1.18 4.51-5.01 7.08-9.78 7.4-4.06.27-7.74 1.35-11.94 1.19-2.32-.09-4.64-.39-6.95 0q-11.08 1.85-23.22.95c-1.77-.13-3.59.94-5.45.95-6.28.05-12.36.79-18.71.51q-8.98-.4-18.42-.12c-4.56.13-9.01-.28-13.58-.2-6.76.12-11.05-3.31-12.71-10.23q-1.57-6.56-1.06-13.82c.27-3.9-.71-7.47-.7-11.33q.03-9.27-.08-18.62c-.03-2.63-.25-5-.93-7.66q-3.2-12.58-3.36-25.62-.11-8.65 1.17-13.18 1.62-5.71 1.94-9.87.69-9.2.47-19.87c-.21-10.17 1.32-19.43 4.24-28.77q1.44-4.59 4.7-8.63c7.49-9.28 17.41-16.74 28.21-20.58 5.8-2.06 12.47-2.64 18.75-3.79 1.83-.33 5.17-.09 7.36.39q8.68 1.93 17.5 3.81c5.41 1.15 10.28 3.42 14.21 7.36q7.7 7.72 15.16 15.7 3.24 3.47 5.03 7.03 3.01 5.98 6.11 12.36m-38.91-40.02q.16.85.92.96.57.08.31-.44-.26-.5-.83-.81-.51-.27-.4.29m-14.393 41.568a5.73 5.73 0 0 0-.184-8.101l-3.543-3.386a5.73 5.73 0 0 0-8.1.184l-3.027 3.167a5.73 5.73 0 0 0 .184 8.101l3.543 3.386a5.73 5.73 0 0 0 8.1-.184zM578.03 501.3c2.79-.73 4.22-3.65 5.2-6.09q.2-.49 0-.98-1.04-2.56-2.66-4.79c-1.31-1.83-4.79-4.08-6.94-2.23q-1.95 1.68-4.04 3.24-.45.33-.6.87c-1.61 5.42 2.74 11.63 9.04 9.98m52.037-7.46a7.42 7.21-15 0 0-9.033-5.044 7.42 7.21-15 0 0-5.301 8.884 7.42 7.21-15 0 0 9.033 5.044 7.42 7.21-15 0 0 5.301-8.884m-3.557 45.82.02 4.38a.92.92 0 0 0 .92.91h.64a2.93 2.88 89.8 0 0 2.87-2.94v-.36a2.93 2.88 89.8 0 0-2.89-2.92h-.64a.92.92 0 0 0-.92.93"></path><path fill="#fff" d="M620.26 435.69q-.11-.56.4-.29.57.31.83.81.26.52-.31.44-.76-.11-.92-.96"></path><path fill="#161615" d="M502.82 443.17a1 1 0 0 1-.5-1.32l.05-.11a3.76 2.36-65.8 0 1 3.69-2.46l.26.11a3.76 2.36-65.8 0 1 .61 4.4l-.05.11a1 1 0 0 1-1.32.5z"></path><path fill="#fff" d="M481.6 456.06q.39 2.32-.35 4.43-.29-2.05.35-4.43m124.267 21.198-3.026 3.167a5.73 5.73 0 0 1-8.101.184q-1.77-1.693-3.543-3.385a5.73 5.73 0 0 1-.183-8.102l3.026-3.166a5.73 5.73 0 0 1 8.101-.184l3.543 3.385a5.73 5.73 0 0 1 .183 8.101m339.023-4.328q-.11 1.42-.91 2.24.02-1.56.91-2.24m-226.2 10.59.15 56.2q-.47-4.62-.47-6.97.01-24 0-48 0-.31.32-1.23m-135.46 11.69c-.98 2.44-2.41 5.36-5.2 6.09-6.3 1.65-10.65-4.56-9.04-9.98q.15-.54.6-.87 2.09-1.56 4.04-3.24c2.15-1.85 5.63.4 6.94 2.23q1.62 2.23 2.66 4.79.2.49 0 .98m46.837-1.37c1.03 3.846-1.342 7.824-5.3 8.884-3.96 1.061-8.003-1.197-9.034-5.043-1.03-3.847 1.343-7.825 5.301-8.885s8.003 1.197 9.033 5.044M930.9 510.97l-.84 2.73q-.13-1.69.84-2.73m-426.21 13.79q-.22-.72.52-.56 1.08.23.87 1.26a.35.35 0 0 1-.45.26q-.72-.23-.94-.96m121.82 14.9a.92.92 0 0 1 .92-.93h.64a2.93 2.88 89.8 0 1 2.89 2.92v.36a2.93 2.88 89.8 0 1-2.87 2.94h-.64a.92.92 0 0 1-.92-.91zm93.42 22.09-.03 47.22q-.52-3.71-.52-6.22-.01-18.37-.01-36.75 0-2.16.56-4.25m.15 51.28q1.05.31.17 1.96zm349.9 63.69q-2.79-12.69-4.52-15.98-3.71-7.08-10.63-12.27-6.29-4.72-13.9-8.94-10.5-5.84-21.04-6.22-4.9-.19-11.18.59-10.08 1.23-17.77 8.01-.04.75-2.21 1.6 7.29-7.3 17.29-9.39 20.85-4.38 38.86 7.08 4.23 2.69 8.61 5.63c6.94 4.65 11.76 10.57 13.94 18.4 1.04 3.75 2.33 7.37 2.55 11.49M966.53 633.5l.36 10.72z"></path><path fill="#161615" d="M515.07 639.46c3.43-1.32 7.73.89 10.41 3.11a1.58 1.57 49.4 0 1-.19 2.56q-4.21 2.55-9.11 3.61-5.49 1.18-8.27-3.43a1.03 1.02-56 0 1-.13-.69c.36-2.32 1.9-4.29 4.38-4.49q1.43-.11 2.91-.67"></path><path fill="#fff" d="M241.85 646.2c-.25 3.41-.19 8.15-4.01 8.28-2.3.07-3.82-1.89-4.86-3.72l3.19 2.96q.37.34.87.33 2.14-.07 3.26-1.64.57-.8.61-3.05.04-1.92.94-3.16"></path><path fill="#161615" d="M542.94 652.61q2.76.59 3.29 3.36.17.9.17 1.82-.01 3.14-3.11 2.65l-3.96-.63q-.69-.11-1.16-.62l-2.77-2.96q-.46-.49-.01-.98 3.21-3.58 7.55-2.64"></path><path fill="#fff" d="M721.36 654.01q1.27 8.88.12 17.72l-.17-.22q-.15-.19-.15-.43zm320.07 21.66q-2.64-.79-5.35-1.46c-1.41-.34-2.24-1.18-3.2-2.17q-.36-.37-.88-.4c-4.58-.29-8.31-.16-12.65-1.93a1.4 1.39 9.9 0 1-.87-1.23q-.09-2.45-.26-5.35c-.12-1.88 1.24-3.16 2.58-4.19a1.93 1.9-59.5 0 1 1.43-.38q9.46 1.3 15.24 5.12c5.12 3.4 7.52 8.33 10.17 13.72a3.34 3.31-45.5 0 1 .01 2.94l-1.24 2.56q-.75 1.55-1.73.12-1.96-2.88-2.58-6.59-.1-.59-.67-.76m-852.75-9.82c4.27-1.73 10.4-3.74 12.79 1.58 1.43 3.18-2.76 7.11-5.59 7.78q-6.54 1.57-13.6.17a1.5 1.48 7.6 0 1-1.2-1.55c.26-4.35 3.85-6.48 7.6-7.98"></path><path fill="#161615" d="M538.17 680.6c-3.23 1.77-6.19-1.08-8.72-2.84a1.14 1.13 48 0 1 .1-1.93q1.79-.97 3.46-2.26c3.23-2.48 7.27-2.19 9.37 1.61a2.44 2.42 56.9 0 1-.65 3.12q-1.65 1.25-3.56 2.3"></path><path fill="#fff" d="m721.23 674.01.06 15.26q-.03.16-.08.31-.11.39-.23 0-.53-1.87-.48-3.83.19-6.3.55-12.32.01-.06.07-.06h.01q-.05.34.1.64"></path><path fill="#161615" d="M515.96 677.75a1.43 1.41-10.5 0 1-.72-.49q-.83-1.06.12-1.76 2.36-1.7 3.86.77.99 1.65-.92 1.76-1.19.07-2.34-.28"></path><path fill="#fff" d="m146.56 679.98-.21 7.51q-.65-3.74.21-7.51m151.35 3.07q.34 2.29-.82 2.97zm423.4 8.17.59 5.26q-.94-2.66-.59-5.26m1.09 9.27.27 3.57q.03.38-.24.65l-.31.32z"></path><path fill="#161615" d="m530.99 709.13-.92-.9q-.56-.53-.7-1.29-.53-2.84 2.6-4.54.48-.26.91.07 2.77 2.06 4.64 4.79a2.31 2.31 0 0 1-.27 2.95q-2.49 2.46-6.58 1.26-.72-.21-.2-.76l.54-.57q.5-.51-.02-1.01m19.537 2.654c-1.765-1.33-1.81-4.245-.102-6.512 1.709-2.267 4.524-3.027 6.288-1.698s1.81 4.245.101 6.513c-1.708 2.267-4.523 3.027-6.287 1.697"></path><path fill="#fff" d="m721.89 705.77.03 5.21q-.71-2.56-.03-5.21m-432.82 2.14-2.42 5.06q.58-2.86 2.42-5.06m760.36 25.63q-.55 3.46-3.38 6.74zm-326.74 7q.03 2.13 1.02 6.45 1.03 4.5-.49 9.79.76-6.01-.39-12.02-.4-2.1-.14-4.22m-191.636 29.09c-.213.231-.692.137-1.07-.21-.378-.348-.512-.818-.299-1.05.213-.231.692-.137 1.07.21.379.348.512.818.3 1.05zM501.7 781.81c.41 3.96 2.21 6.99 4.94 9.74 3.03 3.03 1.37 7.71-1.67 10.01q-.53.4-1.19.41l-4.82.06a.55.55 0 0 1-.55-.52q-.49-7.68-.38-15.75.03-2.14 1.6-4.07.84-1.03 1.02-2.32a.73.73 0 0 1 1.31-.34q1.09 1.47 2.71 2.43a.55.54 34.3 0 1 .16.8l-.27.34a.39.38 37.3 0 1-.53.07l-1.68-1.23a.41.41 0 0 0-.65.37m222.15 20.95q.37 3.36-.42 6.21zm277.5 69.52q1.75 4.34-.09 8.98zm-475.65 5.34q2.21.88 4.82.6c2.92-.31 5.69-.78 8.66-.8q26.2-.16 48.57-.13 2.12.01 10-.82c2.27-.24 5.51 1.24 8.26.73 5.38-.99 10.91-.85 16.33-1.1 4.64-.2 8.8-1.01 13.51-.14q2.94.55 6.07.25 6.4-.59 13.55-.85 2.59-.1 5.48.6c5.3 1.29 9.15-.52 13.54-.77q22.25-1.29 40.58.16 8.42.67 13.63 6.89c1.7 2.02-.65 4.44-2.05 6.03q-.34.39-.84.49-6.31 1.34-10.77 1.39-21.6.2-43.65.21-3.69 0-7.6.3c-3.29.25-6.37.3-9.86.81q-4.47.64-10.41.52-14.07-.29-29.68-.48-1.3-.02-2.77-.14-1.41-.12-2.67.07-3.93.59-7.93.54c-3.56-.04-6.56 1.5-10.15.62q-2.64-.64-5.15-.68-4.71-.07-9.07-.19-.54-.01-1.01.26-2.13 1.21-4.66.8-6.32-1.03-12.79-1.52c-3.7-.27-6.91 1.75-10.68 1.75q-11.41 0-23.01.21-3.29.06-7.81-1.37c-2.81-.9-5.31 1.82-8.3 1.66q-7.16-.38-14.31-.21c-4.14.1-8.01-1.76-11.34-3.78-1.51-.92-1.53-2.94-.81-4.36 1.96-3.92 5.19-5.93 9.68-6.23 3.05-.2 5.69-.83 8.89-.65 5.07.28 10.04.02 15.1.17q3.89.11 7.86-1.07 1.27-.38 2.79.23m-304.72 5.87q.88 1.93.48 3.54zm778.21 12.14q.22 3.13-1.62 6.18.18-3.25 1.62-6.18m-343.23 32.62c-.66 3.31-3.77 5.87-6.23 7.99-5.67 4.91-11.34 9.04-18.85 10.36q-2.24.4-12.74.44-15.93.07-31.67-.05c-3.91-.04-7.72.51-11.53 1.21q-2.13.39-4.5.32-5.96-.16-10.92-.79c-7.44-.93-14.13-.65-21.27-.85-2.74-.08-5.42-.67-8.08-1.3-3.62-.86-4.08-1.96-5.4-5.2q-.42-1.03-.18-2.06 1.8-7.79 8.37-9.27a2.52 2.52 0 0 0 1.87-1.77l1.06-3.69q.14-.51.59-.78l4.19-2.53a.69.63-57.1 0 1 .38-.1l6.67.4a1.46 1.46 0 0 0 .97-.3q5.52-4.27 10.56-5.68 7.5-2.11 16.49-4.9 6.42-1.99 11.8-2.63c7.57-.9 15.13-2.42 23.02-2.76 4.54-.19 8.96-.8 13.49-.82 6.06-.03 12.25-.14 18.2.33q11.06.86 22.08 1.43c1.79.1 3.59.58 5.26 1.18a1.24 1.23-77.8 0 1 .81 1.27l-.93 11.12a2 2 0 0 1-1.12 1.64c-2.27 1.12-4.91 2.16-6.56 4.16q-1.54 1.88-4.5 2.35a1.62 1.62 0 0 0-1.33 1.28m338.98-17.75q-.07 2.61-1.38 2.69zm-71.63 9.7q-3.8.78-6.4 3.59 1.42-3.57 6.4-3.59M448.1 944.48l.71 7.52q-1.31-2.67-.71-7.52m460.45.06-4.72 10.75zm-160.56 16.59q-.35 1.13-2.23.76.57-.76 2.23-.76m-240.28 3.28-14.43.52zm371.2 27.54q-1.56 2.9-5.18 4.08zm-273.73 122.1 2.79.94q-1.76.68-2.79-.94"></path></svg></svg><style>@media (prefers-color-scheme: light) { :root { filter: contrast(1) brightness(0.9); } }
@media (prefers-color-scheme: dark) { :root { filter: none; } }
</style></svg>